#N canvas 952 0 958 966 10;
#N canvas 952 0 958 966 (subpatch) 0;
#X floatatom 87 606 8 0 0 0 - - -;
#X floatatom -28 608 8 0 0 0 - - -;
#X floatatom -140 604 8 0 0 0 - - -;
#X floatatom -253 607 8 0 0 0 - - -;
#X floatatom 408 609 8 0 0 0 - - -;
#X floatatom 300 608 8 0 0 0 - - -;
#X floatatom 193 607 8 0 0 0 - - -;
#X obj 215 517 unpack f f f f f f f f f f f;
#X floatatom 517 605 8 0 0 0 - - -;
#X floatatom 843 612 8 0 0 0 - - -;
#X floatatom 728 607 8 0 0 0 - - -;
#X floatatom 617 604 8 0 0 0 - - -;
#X obj 900 635 + 50;
#X obj 785 632 + 50;
#X obj 668 635 + 50;
#X obj -140 583 pipe 200;
#X obj -253 585 pipe 100;
#X obj -28 580 pipe 300;
#X obj -236 643 bng 15 250 50 0 bang1 empty empty 17 7 0 10 -262144
-1 -1;
#N canvas 0 23 1440 855 value1 0;
#X obj 107 177 +~;
#X obj 123 155 receive~ b;
#X obj 121 588 send~ a;
#X obj 107 198 osc~ 1;
#X obj 107 242 *~ 1;
#X obj 107 263 +~ 440;
#X floatatom 126 219 5 0 0 0 - - -;
#X obj 453 181 +~;
#X obj 453 202 osc~ 1;
#X obj 453 247 *~ 1;
#X obj 453 268 +~ 440;
#X floatatom 474 224 5 0 0 0 - - -;
#X obj 469 159 receive~ a;
#X obj 465 585 send~ b;
#X obj 243 163 + 20;
#X obj 108 741 hip~ 10;
#X obj 108 762 hip~ 10;
#X obj 108 783 hip~ 10;
#X obj 452 717 hip~ 10;
#X obj 452 738 hip~ 10;
#X obj 452 759 hip~ 10;
#X obj 452 780 hip~ 10;
#X obj 107 560 *~;
#X obj 453 559 *~;
#X obj 108 720 hip~ 10;
#X floatatom 107 94 5 0 0 0 - - -;
#X obj 107 114 list-abs/list-round;
#X floatatom 107 135 5 0 0 0 - - -;
#X floatatom 453 96 5 0 0 0 - - -;
#X obj 453 116 list-abs/list-round;
#X floatatom 453 137 5 0 0 0 - - -;
#X obj 123 538 line~;
#X obj 239 830 freeverb~/freeverb~;
#X msg 239 776 wet \$1;
#X msg 287 776 dry \$1;
#X obj 242 711 hsl 128 15 0 0.5 0 0 empty empty empty -2 -8 0 10 -262144
-1 -1 0 1;
#N canvas 1 80 450 300 inv 0;
#X obj 154 69 inlet;
#X obj 154 179 outlet;
#X msg 154 124 1;
#X obj 154 97 t b f;
#X obj 154 151 -;
#X connect 0 0 3 0;
#X connect 2 0 4 0;
#X connect 3 0 2 0;
#X connect 3 1 4 1;
#X connect 4 0 1 0;
#X restore 287 739 pd inv;
#X floatatom 345 774 5 0 0 0 - - -;
#X text 230 695 dry;
#X text 355 694 wet;
#X floatatom 246 740 5 0 0 0 - - -;
#X obj 123 415 f;
#X obj 138 385 nbx 4 14 5 1000 1 0 empty empty attack 0 -8 0 10 -262144
-1 -1 5 256;
#X text 187 385 ms;
#X obj 170 490 f;
#X obj 207 487 nbx 4 14 10 10000 1 1 empty empty decay 0 -8 0 10 -262144
-1 -1 500 256;
#X text 254 486 ms;
#X msg 170 513 0 \$1;
#X msg 123 468 1 \$1;
#X obj 170 452 delay;
#X obj 123 438 t f f;
#X obj 467 528 line~;
#X obj 467 415 f;
#X obj 482 385 nbx 4 14 5 1000 1 0 empty empty attack 0 -8 0 10 -262144
-1 -1 5 256;
#X text 531 384 ms;
#X obj 514 490 f;
#X obj 551 478 nbx 4 14 10 10000 1 1 empty empty decay 0 -8 0 10 -262144
-1 -1 843 256;
#X text 598 477 ms;
#X msg 514 513 0 \$1;
#X msg 467 485 1 \$1;
#X obj 514 452 delay;
#X obj 467 438 t f f;
#X obj 123 306 bng 15 250 50 0 empty bang1 empty 17 7 0 10 -262144
-1 -1;
#X obj 467 313 bng 15 250 50 0 empty bang1 empty 17 7 0 10 -262144
-1 -1;
#N canvas 661 203 958 451 wavsel1 0;
#X obj 82 177 osc~;
#X obj 142 177 phasor~;
#X obj 202 155 phasor~;
#X obj 141 104 inlet~;
#X floatatom 289 114 5 0 0 0 - - -;
#X obj 97 280 tgl 15 0 empty empty empty 17 7 0 10 -262144 -1 -1 0
1;
#X obj 157 280 tgl 15 0 empty empty empty 17 7 0 10 -262144 -1 -1 0
1;
#X obj 218 280 tgl 15 0 empty empty empty 17 7 0 10 -262144 -1 -1 0
1;
#X msg 463 215 0;
#X msg 434 215 1;
#X msg 405 215 0;
#X msg 376 215 1;
#X msg 523 215 0;
#X msg 492 215 1;
#X obj 376 84 random 3;
#X floatatom 376 116 5 0 0 0 - - -;
#X obj 376 145 select 0 1 2;
#X obj 82 308 *~;
#X obj 142 308 *~;
#X obj 203 308 *~;
#X obj 141 361 outlet~;
#X obj 376 53 r bang1;
#X obj 202 176 expr~ $v1 > $v2;
#X obj 289 138 / 100;
#X obj 289 87 random 100;
#X connect 0 0 17 0;
#X connect 1 0 18 0;
#X connect 2 0 22 0;
#X connect 3 0 0 0;
#X connect 3 0 1 0;
#X connect 3 0 2 0;
#X connect 4 0 23 0;
#X connect 5 0 17 1;
#X connect 6 0 18 1;
#X connect 7 0 19 1;
#X connect 8 0 6 0;
#X connect 9 0 6 0;
#X connect 10 0 5 0;
#X connect 11 0 5 0;
#X connect 12 0 7 0;
#X connect 13 0 7 0;
#X connect 14 0 15 0;
#X connect 15 0 16 0;
#X connect 16 0 8 0;
#X connect 16 0 11 0;
#X connect 16 0 12 0;
#X connect 16 1 9 0;
#X connect 16 1 10 0;
#X connect 16 1 12 0;
#X connect 16 2 13 0;
#X connect 16 2 8 0;
#X connect 16 2 10 0;
#X connect 17 0 20 0;
#X connect 18 0 20 0;
#X connect 19 0 20 0;
#X connect 21 0 14 0;
#X connect 21 0 24 0;
#X connect 22 0 19 0;
#X connect 23 0 22 1;
#X connect 24 0 4 0;
#X restore 108 284 pd wavsel1;
#N canvas 0 50 640 456 wavsel2 0;
#X obj 82 177 osc~;
#X obj 142 177 phasor~;
#X obj 202 155 phasor~;
#X obj 141 104 inlet~;
#X floatatom 289 114 5 0 0 0 - - -;
#X obj 97 280 tgl 15 0 empty empty empty 17 7 0 10 -262144 -1 -1 0
1;
#X obj 157 280 tgl 15 0 empty empty empty 17 7 0 10 -262144 -1 -1 0
1;
#X obj 218 280 tgl 15 0 empty empty empty 17 7 0 10 -262144 -1 -1 0
1;
#X msg 463 215 0;
#X msg 434 215 1;
#X msg 405 215 0;
#X msg 376 215 1;
#X msg 523 215 0;
#X msg 492 215 1;
#X obj 376 84 random 3;
#X floatatom 376 116 5 0 0 0 - - -;
#X obj 376 145 select 0 1 2;
#X obj 82 308 *~;
#X obj 142 308 *~;
#X obj 203 308 *~;
#X obj 141 361 outlet~;
#X obj 376 53 r bang1;
#X obj 202 176 expr~ $v1 > $v2;
#X obj 289 138 / 100;
#X obj 289 87 random 100;
#X connect 0 0 17 0;
#X connect 1 0 18 0;
#X connect 2 0 22 0;
#X connect 3 0 0 0;
#X connect 3 0 1 0;
#X connect 3 0 2 0;
#X connect 4 0 23 0;
#X connect 5 0 17 1;
#X connect 6 0 18 1;
#X connect 7 0 19 1;
#X connect 8 0 6 0;
#X connect 9 0 6 0;
#X connect 10 0 5 0;
#X connect 11 0 5 0;
#X connect 12 0 7 0;
#X connect 13 0 7 0;
#X connect 14 0 15 0;
#X connect 15 0 16 0;
#X connect 16 0 8 0;
#X connect 16 0 11 0;
#X connect 16 0 12 0;
#X connect 16 1 9 0;
#X connect 16 1 10 0;
#X connect 16 1 12 0;
#X connect 16 2 13 0;
#X connect 16 2 8 0;
#X connect 16 2 10 0;
#X connect 17 0 20 0;
#X connect 18 0 20 0;
#X connect 19 0 20 0;
#X connect 21 0 14 0;
#X connect 21 0 24 0;
#X connect 22 0 19 0;
#X connect 23 0 22 1;
#X connect 24 0 4 0;
#X restore 454 289 pd wavsel2;
#X obj 108 54 inlet;
#X obj 454 56 inlet;
#X obj 240 858 outlet~;
#X obj 349 858 outlet~;
#X obj 303 599 bng 15 250 50 0 empty bang1 empty 17 7 0 10 -262144
-1 -1;
#X obj 303 639 random 100;
#X obj 303 660 * 0.01;
#X floatatom 303 681 5 0 0 0 - - -;
#X obj 239 661 loadbang;
#X obj 108 75 * 4;
#X obj 454 77 * 4;
#X obj 138 340 random 10;
#X obj 482 342 random 10;
#X obj 125 677 hsl 70 15 0.1 0.5 0 0 empty empty empty -2 -8 0 10 -262144
-1 -1 0 1;
#X obj 471 675 hsl 70 15 0.1 0.5 0 0 empty empty empty -2 -8 0 10 -262144
-1 -1 0 1;
#X obj 107 698 *~;
#X obj 453 696 *~;
#X obj 122 612 random 50;
#X obj 122 633 * 0.01;
#X floatatom 122 654 5 0 0 0 - - -;
#X obj 468 612 random 50;
#X obj 468 633 * 0.01;
#X floatatom 468 654 5 0 0 0 - - -;
#X obj 207 319 random 1000;
#X obj 207 340 clip 500 1000;
#X obj 551 326 random 1000;
#X obj 551 347 clip 500 1000;
#X connect 0 0 3 0;
#X connect 1 0 0 1;
#X connect 3 0 4 0;
#X connect 4 0 5 0;
#X connect 5 0 64 0;
#X connect 6 0 4 1;
#X connect 7 0 8 0;
#X connect 8 0 9 0;
#X connect 9 0 10 0;
#X connect 10 0 65 0;
#X connect 11 0 9 1;
#X connect 12 0 7 1;
#X connect 14 0 6 0;
#X connect 14 0 11 0;
#X connect 15 0 16 0;
#X connect 16 0 17 0;
#X connect 17 0 32 0;
#X connect 17 0 32 1;
#X connect 18 0 19 0;
#X connect 19 0 20 0;
#X connect 20 0 21 0;
#X connect 21 0 32 1;
#X connect 21 0 32 0;
#X connect 22 0 2 0;
#X connect 22 0 81 0;
#X connect 23 0 13 0;
#X connect 23 0 82 0;
#X connect 24 0 15 0;
#X connect 25 0 26 0;
#X connect 26 0 27 0;
#X connect 27 0 0 0;
#X connect 28 0 29 0;
#X connect 29 0 30 0;
#X connect 30 0 7 0;
#X connect 31 0 22 1;
#X connect 32 0 68 0;
#X connect 32 1 69 0;
#X connect 33 0 32 0;
#X connect 34 0 32 0;
#X connect 35 0 33 0;
#X connect 35 0 36 0;
#X connect 35 0 40 0;
#X connect 36 0 34 0;
#X connect 36 0 37 0;
#X connect 41 0 50 0;
#X connect 42 0 41 1;
#X connect 44 0 47 0;
#X connect 45 0 44 1;
#X connect 47 0 31 0;
#X connect 48 0 31 0;
#X connect 49 0 44 0;
#X connect 50 0 48 0;
#X connect 50 1 49 0;
#X connect 51 0 23 1;
#X connect 52 0 61 0;
#X connect 53 0 52 1;
#X connect 55 0 58 0;
#X connect 56 0 55 1;
#X connect 58 0 51 0;
#X connect 59 0 51 0;
#X connect 60 0 55 0;
#X connect 61 0 59 0;
#X connect 61 1 60 0;
#X connect 62 0 41 0;
#X connect 62 0 77 0;
#X connect 62 0 89 0;
#X connect 63 0 52 0;
#X connect 63 0 78 0;
#X connect 63 0 91 0;
#X connect 64 0 22 0;
#X connect 65 0 23 0;
#X connect 66 0 14 0;
#X connect 66 0 75 0;
#X connect 67 0 76 0;
#X connect 70 0 71 0;
#X connect 70 0 83 0;
#X connect 70 0 86 0;
#X connect 71 0 72 0;
#X connect 72 0 73 0;
#X connect 73 0 35 0;
#X connect 74 0 35 0;
#X connect 75 0 25 0;
#X connect 76 0 28 0;
#X connect 77 0 42 0;
#X connect 78 0 53 0;
#X connect 79 0 81 1;
#X connect 80 0 82 1;
#X connect 81 0 24 0;
#X connect 82 0 18 0;
#X connect 83 0 84 0;
#X connect 84 0 85 0;
#X connect 85 0 79 0;
#X connect 86 0 87 0;
#X connect 87 0 88 0;
#X connect 88 0 80 0;
#X connect 89 0 90 0;
#X connect 90 0 45 0;
#X connect 91 0 92 0;
#X connect 92 0 56 0;
#X restore -253 669 pd value1;
#N canvas 813 2 701 966 value2 0;
#X obj 107 165 +~;
#X obj 107 246 osc~ 1;
#X obj 107 317 *~ 1;
#X obj 107 338 +~ 440;
#X floatatom 126 294 5 0 0 0 - - -;
#X obj 393 233 +~;
#X obj 393 254 osc~ 1;
#X obj 393 325 *~ 1;
#X obj 393 346 +~ 440;
#X floatatom 412 302 5 0 0 0 - - -;
#X obj 243 193 + 20;
#X obj 108 997 hip~ 10;
#X obj 108 1018 hip~ 10;
#X obj 108 1039 hip~ 10;
#X obj 392 956 hip~ 10;
#X obj 392 977 hip~ 10;
#X obj 392 998 hip~ 10;
#X obj 392 1019 hip~ 10;
#X obj 107 720 *~;
#X obj 393 708 *~;
#X obj 108 976 hip~ 10;
#X floatatom 107 20 5 0 0 0 - - -;
#X obj 107 47 list-abs/list-round;
#X floatatom 107 68 5 0 0 0 - - -;
#X floatatom 393 111 5 0 0 0 - - -;
#X obj 393 138 list-abs/list-round;
#X floatatom 393 159 5 0 0 0 - - -;
#X obj 123 688 line~;
#X obj 189 1203 freeverb~/freeverb~;
#X msg 210 1069 wet \$1;
#X msg 258 1069 dry \$1;
#X obj 213 1014 hsl 128 15 0 1 0 0 empty empty empty -2 -8 0 10 -262144
-1 -1 0 1;
#N canvas 1 80 450 300 inv 0;
#X obj 154 69 inlet;
#X obj 154 179 outlet;
#X msg 154 124 1;
#X obj 154 97 t b f;
#X obj 154 151 -;
#X connect 0 0 3 0;
#X connect 2 0 4 0;
#X connect 3 0 2 0;
#X connect 3 1 4 1;
#X connect 4 0 1 0;
#X restore 258 1042 pd inv;
#X floatatom 316 1067 5 0 0 0 - - -;
#X text 201 998 dry;
#X text 326 997 wet;
#X floatatom 217 1043 5 0 0 0 - - -;
#X obj 123 549 f;
#X obj 148 519 nbx 4 14 5 1000 1 0 empty empty attack 0 -8 0 10 -262144
-1 -1 5 256;
#X text 197 519 ms;
#X obj 170 640 f;
#X obj 217 637 nbx 4 14 10 10000 1 1 empty empty decay 0 -8 0 10 -262144
-1 -1 500 256;
#X text 264 636 ms;
#X msg 170 663 0 \$1;
#X msg 123 618 1 \$1;
#X obj 170 602 delay;
#X obj 123 572 t f f;
#X obj 407 677 line~;
#X obj 407 538 f;
#X obj 432 508 nbx 4 14 5 1000 1 0 empty empty attack 0 -8 0 10 -262144
-1 -1 5 256;
#X text 481 508 ms;
#X obj 454 629 f;
#X obj 506 626 nbx 4 14 10 10000 1 1 empty empty decay 0 -8 0 10 -262144
-1 -1 500 256;
#X text 553 625 ms;
#X msg 454 652 0 \$1;
#X msg 407 607 1 \$1;
#X obj 454 591 delay;
#X obj 407 561 t f f;
#X obj 123 422 bng 15 250 50 0 empty bang2 empty 17 7 0 10 -262144
-1 -1;
#X obj 407 438 bng 15 250 50 0 empty bang2 empty 17 7 0 10 -262144
-1 -1;
#X obj 108 -38 inlet;
#X obj 394 -19 inlet;
#X obj 190 1261 outlet~;
#X obj 299 1261 outlet~;
#N canvas 952 515 958 451 wavsel3 0;
#X obj 82 177 osc~;
#X obj 142 177 phasor~;
#X obj 202 155 phasor~;
#X obj 141 104 inlet~;
#X floatatom 289 114 5 0 0 0 - - -;
#X obj 97 280 tgl 15 0 empty empty empty 17 7 0 10 -262144 -1 -1 0
1;
#X obj 157 280 tgl 15 0 empty empty empty 17 7 0 10 -262144 -1 -1 0
1;
#X obj 218 280 tgl 15 0 empty empty empty 17 7 0 10 -262144 -1 -1 0
1;
#X msg 463 215 0;
#X msg 434 215 1;
#X msg 405 215 0;
#X msg 376 215 1;
#X msg 523 215 0;
#X msg 492 215 1;
#X obj 376 84 random 3;
#X floatatom 376 116 5 0 0 0 - - -;
#X obj 376 145 select 0 1 2;
#X obj 82 308 *~;
#X obj 142 308 *~;
#X obj 203 308 *~;
#X obj 141 361 outlet~;
#X obj 202 176 expr~ $v1 > $v2;
#X obj 289 138 / 100;
#X obj 289 87 random 100;
#X obj 376 53 r bang2;
#X connect 0 0 17 0;
#X connect 1 0 18 0;
#X connect 2 0 21 0;
#X connect 3 0 0 0;
#X connect 3 0 1 0;
#X connect 3 0 2 0;
#X connect 4 0 22 0;
#X connect 5 0 17 1;
#X connect 6 0 18 1;
#X connect 7 0 19 1;
#X connect 8 0 6 0;
#X connect 9 0 6 0;
#X connect 10 0 5 0;
#X connect 11 0 5 0;
#X connect 12 0 7 0;
#X connect 13 0 7 0;
#X connect 14 0 15 0;
#X connect 15 0 16 0;
#X connect 16 0 8 0;
#X connect 16 0 11 0;
#X connect 16 0 12 0;
#X connect 16 1 9 0;
#X connect 16 1 10 0;
#X connect 16 1 12 0;
#X connect 16 2 13 0;
#X connect 16 2 8 0;
#X connect 16 2 10 0;
#X connect 17 0 20 0;
#X connect 18 0 20 0;
#X connect 19 0 20 0;
#X connect 21 0 19 0;
#X connect 22 0 21 1;
#X connect 23 0 4 0;
#X connect 24 0 14 0;
#X connect 24 0 23 0;
#X restore 108 359 pd wavsel3;
#N canvas 0 50 640 456 wavsel4 0;
#X obj 82 177 osc~;
#X obj 142 177 phasor~;
#X obj 202 155 phasor~;
#X obj 141 104 inlet~;
#X floatatom 289 114 5 0 0 0 - - -;
#X obj 97 280 tgl 15 0 empty empty empty 17 7 0 10 -262144 -1 -1 0
1;
#X obj 157 280 tgl 15 0 empty empty empty 17 7 0 10 -262144 -1 -1 0
1;
#X obj 218 280 tgl 15 0 empty empty empty 17 7 0 10 -262144 -1 -1 0
1;
#X msg 463 215 0;
#X msg 434 215 1;
#X msg 405 215 0;
#X msg 376 215 1;
#X msg 523 215 0;
#X msg 492 215 1;
#X obj 376 84 random 3;
#X floatatom 376 116 5 0 0 0 - - -;
#X obj 376 145 select 0 1 2;
#X obj 82 308 *~;
#X obj 142 308 *~;
#X obj 203 308 *~;
#X obj 141 361 outlet~;
#X obj 202 176 expr~ $v1 > $v2;
#X obj 289 138 / 100;
#X obj 289 87 random 100;
#X obj 376 53 r bang2;
#X connect 0 0 17 0;
#X connect 1 0 18 0;
#X connect 2 0 21 0;
#X connect 3 0 0 0;
#X connect 3 0 1 0;
#X connect 3 0 2 0;
#X connect 4 0 22 0;
#X connect 5 0 17 1;
#X connect 6 0 18 1;
#X connect 7 0 19 1;
#X connect 8 0 6 0;
#X connect 9 0 6 0;
#X connect 10 0 5 0;
#X connect 11 0 5 0;
#X connect 12 0 7 0;
#X connect 13 0 7 0;
#X connect 14 0 15 0;
#X connect 15 0 16 0;
#X connect 16 0 8 0;
#X connect 16 0 11 0;
#X connect 16 0 12 0;
#X connect 16 1 9 0;
#X connect 16 1 10 0;
#X connect 16 1 12 0;
#X connect 16 2 13 0;
#X connect 16 2 8 0;
#X connect 16 2 10 0;
#X connect 17 0 20 0;
#X connect 18 0 20 0;
#X connect 19 0 20 0;
#X connect 21 0 19 0;
#X connect 22 0 21 1;
#X connect 23 0 4 0;
#X connect 24 0 14 0;
#X connect 24 0 23 0;
#X restore 394 383 pd wavsel4;
#X obj 186 752 send~ c;
#X obj 305 756 send~ d;
#X obj 409 191 receive~ c;
#X obj 123 123 receive~ d;
#X obj 249 789 bng 15 250 50 0 empty bang2 empty 17 7 0 10 -262144
-1 -1;
#X obj 249 889 random 100;
#X obj 249 910 * 0.01;
#X floatatom 249 931 5 0 0 0 - - -;
#X obj 210 976 loadbang;
#X obj 108 1 * 4;
#X obj 394 92 * 4;
#X obj 411 899 hsl 70 15 0.1 0.5 0 0 empty empty empty -2 -8 0 10 -262144
-1 -1 0 1;
#X obj 408 834 random 50;
#X obj 408 855 * 0.01;
#X floatatom 408 876 5 0 0 0 - - -;
#X obj 393 925 *~;
#X obj 107 921 *~;
#X obj 125 886 hsl 70 15 0.1 0.5 0 0 empty empty empty -2 -8 0 10 -262144
-1 -1 0 1;
#X obj 122 821 random 50;
#X obj 122 842 * 0.01;
#X floatatom 122 863 5 0 0 0 - - -;
#X obj 431 471 random 10;
#X obj 506 451 random 1000;
#X obj 506 472 clip 500 1000;
#X obj 148 451 random 10;
#X obj 217 435 random 1000;
#X obj 217 456 clip 500 1000;
#X connect 0 0 1 0;
#X connect 1 0 2 0;
#X connect 2 0 3 0;
#X connect 3 0 64 0;
#X connect 4 0 2 1;
#X connect 5 0 6 0;
#X connect 6 0 7 0;
#X connect 7 0 8 0;
#X connect 8 0 65 0;
#X connect 9 0 7 1;
#X connect 10 0 4 0;
#X connect 10 0 9 0;
#X connect 11 0 12 0;
#X connect 12 0 13 0;
#X connect 13 0 28 0;
#X connect 13 0 28 1;
#X connect 14 0 15 0;
#X connect 15 0 16 0;
#X connect 16 0 17 0;
#X connect 17 0 28 1;
#X connect 17 0 28 0;
#X connect 18 0 66 0;
#X connect 18 0 82 0;
#X connect 19 0 67 0;
#X connect 19 0 81 0;
#X connect 20 0 11 0;
#X connect 21 0 22 0;
#X connect 22 0 23 0;
#X connect 23 0 0 0;
#X connect 24 0 25 0;
#X connect 25 0 26 0;
#X connect 26 0 5 0;
#X connect 27 0 18 1;
#X connect 28 0 62 0;
#X connect 28 1 63 0;
#X connect 29 0 28 0;
#X connect 30 0 28 0;
#X connect 31 0 29 0;
#X connect 31 0 32 0;
#X connect 31 0 36 0;
#X connect 32 0 30 0;
#X connect 32 0 33 0;
#X connect 37 0 46 0;
#X connect 38 0 37 1;
#X connect 40 0 43 0;
#X connect 41 0 40 1;
#X connect 43 0 27 0;
#X connect 44 0 27 0;
#X connect 45 0 40 0;
#X connect 46 0 44 0;
#X connect 46 1 45 0;
#X connect 47 0 19 1;
#X connect 48 0 57 0;
#X connect 49 0 48 1;
#X connect 51 0 54 0;
#X connect 52 0 51 1;
#X connect 54 0 47 0;
#X connect 55 0 47 0;
#X connect 56 0 51 0;
#X connect 57 0 55 0;
#X connect 57 1 56 0;
#X connect 58 0 37 0;
#X connect 58 0 90 0;
#X connect 58 0 91 0;
#X connect 59 0 48 0;
#X connect 59 0 87 0;
#X connect 59 0 88 0;
#X connect 60 0 10 0;
#X connect 60 0 75 0;
#X connect 61 0 76 0;
#X connect 64 0 18 0;
#X connect 65 0 19 0;
#X connect 68 0 5 1;
#X connect 69 0 0 1;
#X connect 70 0 71 0;
#X connect 70 0 84 0;
#X connect 70 0 78 0;
#X connect 71 0 72 0;
#X connect 72 0 73 0;
#X connect 73 0 31 0;
#X connect 74 0 31 0;
#X connect 75 0 21 0;
#X connect 76 0 24 0;
#X connect 77 0 81 1;
#X connect 78 0 79 0;
#X connect 79 0 80 0;
#X connect 80 0 77 0;
#X connect 81 0 14 0;
#X connect 82 0 20 0;
#X connect 83 0 82 1;
#X connect 84 0 85 0;
#X connect 85 0 86 0;
#X connect 86 0 83 0;
#X connect 87 0 49 0;
#X connect 88 0 89 0;
#X connect 89 0 52 0;
#X connect 90 0 38 0;
#X connect 91 0 92 0;
#X connect 92 0 41 0;
#X restore -140 667 pd value2;
#X obj -42 642 bng 15 250 50 0 bang2 empty empty 17 7 0 10 -262144
-1 -1;
#N canvas -8 0 958 958 value3 0;
#X obj 107 161 +~;
#X obj 107 182 osc~ 1;
#X obj 107 226 *~ 1;
#X obj 107 247 +~ 440;
#X floatatom 126 203 5 0 0 0 - - -;
#X obj 393 162 +~;
#X obj 393 183 osc~ 1;
#X obj 393 229 *~ 1;
#X obj 393 250 +~ 440;
#X floatatom 412 206 5 0 0 0 - - -;
#X obj 243 243 + 20;
#X obj 108 867 hip~ 10;
#X obj 108 888 hip~ 10;
#X obj 108 909 hip~ 10;
#X obj 392 826 hip~ 10;
#X obj 392 847 hip~ 10;
#X obj 392 868 hip~ 10;
#X obj 392 889 hip~ 10;
#X obj 107 610 *~;
#X obj 393 598 *~;
#X obj 108 846 hip~ 10;
#X floatatom 107 70 5 0 0 0 - - -;
#X obj 107 97 list-abs/list-round;
#X floatatom 107 118 5 0 0 0 - - -;
#X floatatom 393 71 5 0 0 0 - - -;
#X obj 393 98 list-abs/list-round;
#X floatatom 393 119 5 0 0 0 - - -;
#X obj 123 578 line~;
#X obj 189 1073 freeverb~/freeverb~;
#X msg 210 939 wet \$1;
#X msg 258 939 dry \$1;
#X obj 213 884 hsl 128 15 0 1 0 0 empty empty empty -2 -8 0 10 -262144
-1 -1 0 1;
#N canvas 1 80 450 300 inv 0;
#X obj 154 69 inlet;
#X obj 154 179 outlet;
#X msg 154 124 1;
#X obj 154 97 t b f;
#X obj 154 151 -;
#X connect 0 0 3 0;
#X connect 2 0 4 0;
#X connect 3 0 2 0;
#X connect 3 1 4 1;
#X connect 4 0 1 0;
#X restore 258 912 pd inv;
#X floatatom 316 937 5 0 0 0 - - -;
#X text 201 868 dry;
#X text 326 867 wet;
#X floatatom 217 913 5 0 0 0 - - -;
#X obj 123 439 f;
#X obj 148 409 nbx 4 14 5 1000 1 0 empty empty attack 0 -8 0 10 -262144
-1 -1 5 256;
#X text 197 409 ms;
#X obj 170 530 f;
#X obj 217 527 nbx 4 14 10 10000 1 1 empty empty decay 0 -8 0 10 -262144
-1 -1 500 256;
#X text 264 526 ms;
#X msg 170 553 0 \$1;
#X msg 123 508 1 \$1;
#X obj 170 492 delay;
#X obj 123 462 t f f;
#X obj 407 567 line~;
#X obj 407 428 f;
#X obj 432 398 nbx 4 14 5 1000 1 0 empty empty attack 0 -8 0 10 -262144
-1 -1 5 256;
#X text 481 398 ms;
#X obj 454 519 f;
#X obj 521 516 nbx 4 14 10 10000 1 1 empty empty decay 0 -8 0 10 -262144
-1 -1 500 256;
#X text 568 515 ms;
#X msg 454 542 0 \$1;
#X msg 407 497 1 \$1;
#X obj 454 481 delay;
#X obj 407 451 t f f;
#X obj 123 302 bng 15 250 50 0 empty bang3 empty 17 7 0 10 -262144
-1 -1;
#X obj 407 318 bng 15 250 50 0 empty bang3 empty 17 7 0 10 -262144
-1 -1;
#X obj 108 12 inlet;
#X obj 394 31 inlet;
#X obj 190 1131 outlet~;
#X obj 299 1131 outlet~;
#N canvas 952 515 958 451 wavsel5 0;
#X obj 82 177 osc~;
#X obj 142 177 phasor~;
#X obj 202 155 phasor~;
#X obj 141 104 inlet~;
#X floatatom 289 114 5 0 0 0 - - -;
#X obj 97 280 tgl 15 0 empty empty empty 17 7 0 10 -262144 -1 -1 0
1;
#X obj 157 280 tgl 15 0 empty empty empty 17 7 0 10 -262144 -1 -1 0
1;
#X obj 218 280 tgl 15 0 empty empty empty 17 7 0 10 -262144 -1 -1 0
1;
#X msg 463 215 0;
#X msg 434 215 1;
#X msg 405 215 0;
#X msg 376 215 1;
#X msg 523 215 0;
#X msg 492 215 1;
#X obj 376 84 random 3;
#X floatatom 376 116 5 0 0 0 - - -;
#X obj 376 145 select 0 1 2;
#X obj 82 308 *~;
#X obj 142 308 *~;
#X obj 203 308 *~;
#X obj 141 361 outlet~;
#X obj 202 176 expr~ $v1 > $v2;
#X obj 289 138 / 100;
#X obj 289 87 random 100;
#X obj 376 53 r bang3;
#X connect 0 0 17 0;
#X connect 1 0 18 0;
#X connect 2 0 21 0;
#X connect 3 0 0 0;
#X connect 3 0 1 0;
#X connect 3 0 2 0;
#X connect 4 0 22 0;
#X connect 5 0 17 1;
#X connect 6 0 18 1;
#X connect 7 0 19 1;
#X connect 8 0 6 0;
#X connect 9 0 6 0;
#X connect 10 0 5 0;
#X connect 11 0 5 0;
#X connect 12 0 7 0;
#X connect 13 0 7 0;
#X connect 14 0 15 0;
#X connect 15 0 16 0;
#X connect 16 0 8 0;
#X connect 16 0 11 0;
#X connect 16 0 12 0;
#X connect 16 1 9 0;
#X connect 16 1 10 0;
#X connect 16 1 12 0;
#X connect 16 2 13 0;
#X connect 16 2 8 0;
#X connect 16 2 10 0;
#X connect 17 0 20 0;
#X connect 18 0 20 0;
#X connect 19 0 20 0;
#X connect 21 0 19 0;
#X connect 22 0 21 1;
#X connect 23 0 4 0;
#X connect 24 0 14 0;
#X connect 24 0 23 0;
#X restore 108 268 pd wavsel5;
#N canvas 0 50 640 456 wavsel6 0;
#X obj 82 177 osc~;
#X obj 142 177 phasor~;
#X obj 202 155 phasor~;
#X obj 141 104 inlet~;
#X floatatom 289 114 5 0 0 0 - - -;
#X obj 97 280 tgl 15 0 empty empty empty 17 7 0 10 -262144 -1 -1 0
1;
#X obj 157 280 tgl 15 0 empty empty empty 17 7 0 10 -262144 -1 -1 0
1;
#X obj 218 280 tgl 15 0 empty empty empty 17 7 0 10 -262144 -1 -1 0
1;
#X msg 463 215 0;
#X msg 434 215 1;
#X msg 405 215 0;
#X msg 376 215 1;
#X msg 523 215 0;
#X msg 492 215 1;
#X obj 376 84 random 3;
#X floatatom 376 116 5 0 0 0 - - -;
#X obj 376 145 select 0 1 2;
#X obj 82 308 *~;
#X obj 142 308 *~;
#X obj 203 308 *~;
#X obj 141 361 outlet~;
#X obj 202 176 expr~ $v1 > $v2;
#X obj 289 138 / 100;
#X obj 289 87 random 100;
#X obj 376 53 r bang3;
#X connect 0 0 17 0;
#X connect 1 0 18 0;
#X connect 2 0 21 0;
#X connect 3 0 0 0;
#X connect 3 0 1 0;
#X connect 3 0 2 0;
#X connect 4 0 22 0;
#X connect 5 0 17 1;
#X connect 6 0 18 1;
#X connect 7 0 19 1;
#X connect 8 0 6 0;
#X connect 9 0 6 0;
#X connect 10 0 5 0;
#X connect 11 0 5 0;
#X connect 12 0 7 0;
#X connect 13 0 7 0;
#X connect 14 0 15 0;
#X connect 15 0 16 0;
#X connect 16 0 8 0;
#X connect 16 0 11 0;
#X connect 16 0 12 0;
#X connect 16 1 9 0;
#X connect 16 1 10 0;
#X connect 16 1 12 0;
#X connect 16 2 13 0;
#X connect 16 2 8 0;
#X connect 16 2 10 0;
#X connect 17 0 20 0;
#X connect 18 0 20 0;
#X connect 19 0 20 0;
#X connect 21 0 19 0;
#X connect 22 0 21 1;
#X connect 23 0 4 0;
#X connect 24 0 14 0;
#X connect 24 0 23 0;
#X restore 394 275 pd wavsel6;
#X obj 186 642 send~ e;
#X obj 409 140 receive~ e;
#X obj 305 646 send~ f;
#X obj 123 139 receive~ f;
#X obj 254 664 bng 15 250 50 0 empty bang3 empty 17 7 0 10 -262144
-1 -1;
#X obj 254 764 random 100;
#X obj 254 785 * 0.01;
#X floatatom 254 806 5 0 0 0 - - -;
#X obj 184 811 loadbang;
#X obj 108 51 * 4;
#X obj 394 52 * 4;
#X obj 411 769 hsl 70 15 0.1 0.5 0 0 empty empty empty -2 -8 0 10 -262144
-1 -1 0 1;
#X obj 408 704 random 50;
#X obj 408 725 * 0.01;
#X floatatom 408 746 5 0 0 0 - - -;
#X obj 125 756 hsl 70 15 0.1 0.5 0 0 empty empty empty -2 -8 0 10 -262144
-1 -1 0 1;
#X obj 122 691 random 50;
#X obj 122 712 * 0.01;
#X floatatom 122 733 5 0 0 0 - - -;
#X obj 107 821 *~;
#X obj 393 805 *~;
#X obj 432 347 random 10;
#X obj 521 331 random 1000;
#X obj 521 352 clip 500 1000;
#X obj 148 331 random 10;
#X obj 217 315 random 1000;
#X obj 217 336 clip 500 1000;
#X connect 0 0 1 0;
#X connect 1 0 2 0;
#X connect 2 0 3 0;
#X connect 3 0 64 0;
#X connect 4 0 2 1;
#X connect 5 0 6 0;
#X connect 6 0 7 0;
#X connect 7 0 8 0;
#X connect 8 0 65 0;
#X connect 9 0 7 1;
#X connect 10 0 4 0;
#X connect 10 0 9 0;
#X connect 11 0 12 0;
#X connect 12 0 13 0;
#X connect 13 0 28 0;
#X connect 13 0 28 1;
#X connect 14 0 15 0;
#X connect 15 0 16 0;
#X connect 16 0 17 0;
#X connect 17 0 28 1;
#X connect 17 0 28 0;
#X connect 18 0 66 0;
#X connect 18 0 85 0;
#X connect 19 0 68 0;
#X connect 19 0 86 0;
#X connect 20 0 11 0;
#X connect 21 0 22 0;
#X connect 22 0 23 0;
#X connect 23 0 0 0;
#X connect 24 0 25 0;
#X connect 25 0 26 0;
#X connect 26 0 5 0;
#X connect 27 0 18 1;
#X connect 28 0 62 0;
#X connect 28 1 63 0;
#X connect 29 0 28 0;
#X connect 30 0 28 0;
#X connect 31 0 29 0;
#X connect 31 0 32 0;
#X connect 31 0 36 0;
#X connect 32 0 30 0;
#X connect 32 0 33 0;
#X connect 37 0 46 0;
#X connect 38 0 37 1;
#X connect 40 0 43 0;
#X connect 41 0 40 1;
#X connect 43 0 27 0;
#X connect 44 0 27 0;
#X connect 45 0 40 0;
#X connect 46 0 44 0;
#X connect 46 1 45 0;
#X connect 47 0 19 1;
#X connect 48 0 57 0;
#X connect 49 0 48 1;
#X connect 51 0 54 0;
#X connect 52 0 51 1;
#X connect 54 0 47 0;
#X connect 55 0 47 0;
#X connect 56 0 51 0;
#X connect 57 0 55 0;
#X connect 57 1 56 0;
#X connect 58 0 37 0;
#X connect 58 0 90 0;
#X connect 58 0 91 0;
#X connect 59 0 48 0;
#X connect 59 0 87 0;
#X connect 59 0 88 0;
#X connect 60 0 10 0;
#X connect 60 0 75 0;
#X connect 61 0 76 0;
#X connect 64 0 18 0;
#X connect 65 0 19 0;
#X connect 67 0 5 1;
#X connect 69 0 0 1;
#X connect 70 0 71 0;
#X connect 70 0 78 0;
#X connect 70 0 82 0;
#X connect 71 0 72 0;
#X connect 72 0 73 0;
#X connect 73 0 31 0;
#X connect 74 0 31 0;
#X connect 75 0 21 0;
#X connect 76 0 24 0;
#X connect 77 0 86 1;
#X connect 78 0 79 0;
#X connect 79 0 80 0;
#X connect 80 0 77 0;
#X connect 81 0 85 1;
#X connect 82 0 83 0;
#X connect 83 0 84 0;
#X connect 84 0 81 0;
#X connect 85 0 20 0;
#X connect 86 0 14 0;
#X connect 87 0 49 0;
#X connect 88 0 89 0;
#X connect 89 0 52 0;
#X connect 90 0 38 0;
#X connect 91 0 92 0;
#X connect 92 0 41 0;
#X restore -28 668 pd value3;
#N canvas -8 0 958 966 value4 0;
#X obj 107 116 +~;
#X obj 107 139 osc~ 1;
#X obj 107 186 *~ 1;
#X obj 107 207 +~ 440;
#X floatatom 126 163 5 0 0 0 - - -;
#X obj 393 93 +~;
#X obj 393 114 osc~ 1;
#X obj 393 163 *~ 1;
#X obj 393 184 +~ 440;
#X floatatom 412 140 5 0 0 0 - - -;
#X obj 243 194 + 20;
#X obj 108 868 hip~ 10;
#X obj 108 889 hip~ 10;
#X obj 108 910 hip~ 10;
#X obj 392 827 hip~ 10;
#X obj 392 848 hip~ 10;
#X obj 392 869 hip~ 10;
#X obj 392 890 hip~ 10;
#X obj 107 541 *~;
#X obj 393 529 *~;
#X obj 108 847 hip~ 10;
#X floatatom 107 21 5 0 0 0 - - -;
#X obj 107 48 list-abs/list-round;
#X floatatom 107 69 5 0 0 0 - - -;
#X floatatom 393 9 5 0 0 0 - - -;
#X obj 393 30 list-abs/list-round;
#X floatatom 393 51 5 0 0 0 - - -;
#X obj 123 509 line~;
#X obj 189 1074 freeverb~/freeverb~;
#X msg 210 940 wet \$1;
#X msg 258 940 dry \$1;
#X obj 213 885 hsl 128 15 0 1 0 0 empty empty empty -2 -8 0 10 -262144
-1 -1 0 1;
#N canvas 1 80 450 300 inv 0;
#X obj 154 69 inlet;
#X obj 154 179 outlet;
#X msg 154 124 1;
#X obj 154 97 t b f;
#X obj 154 151 -;
#X connect 0 0 3 0;
#X connect 2 0 4 0;
#X connect 3 0 2 0;
#X connect 3 1 4 1;
#X connect 4 0 1 0;
#X restore 258 913 pd inv;
#X floatatom 316 938 5 0 0 0 - - -;
#X text 201 869 dry;
#X text 326 868 wet;
#X floatatom 217 914 5 0 0 0 - - -;
#X obj 123 370 f;
#X obj 148 340 nbx 4 14 5 1000 1 0 empty empty attack 0 -8 0 10 -262144
-1 -1 5 256;
#X text 197 340 ms;
#X obj 170 461 f;
#X obj 217 458 nbx 4 14 10 10000 1 1 empty empty decay 0 -8 0 10 -262144
-1 -1 500 256;
#X text 264 457 ms;
#X msg 170 484 0 \$1;
#X msg 123 439 1 \$1;
#X obj 170 423 delay;
#X obj 123 393 t f f;
#X obj 407 498 line~;
#X obj 407 359 f;
#X obj 432 329 nbx 4 14 5 1000 1 0 empty empty attack 0 -8 0 10 -262144
-1 -1 5 256;
#X text 481 329 ms;
#X obj 454 450 f;
#X obj 501 447 nbx 4 14 10 10000 1 1 empty empty decay 0 -8 0 10 -262144
-1 -1 500 256;
#X text 548 446 ms;
#X msg 454 473 0 \$1;
#X msg 407 428 1 \$1;
#X obj 454 412 delay;
#X obj 407 382 t f f;
#X obj 123 269 bng 15 250 50 0 empty bang4 empty 17 7 0 10 -262144
-1 -1;
#X obj 407 250 bng 15 250 50 0 empty bang4 empty 17 7 0 10 -262144
-1 -1;
#X obj 108 -37 inlet;
#X obj 394 -38 inlet;
#X obj 190 1132 outlet~;
#X obj 299 1132 outlet~;
#X obj 186 573 send~ g;
#X obj 409 71 receive~ g;
#X obj 305 577 send~ h;
#X obj 123 94 receive~ h;
#N canvas 952 515 958 451 wavsel7 0;
#X obj 82 177 osc~;
#X obj 142 177 phasor~;
#X obj 202 155 phasor~;
#X obj 141 104 inlet~;
#X floatatom 289 114 5 0 0 0 - - -;
#X obj 97 280 tgl 15 0 empty empty empty 17 7 0 10 -262144 -1 -1 0
1;
#X obj 157 280 tgl 15 0 empty empty empty 17 7 0 10 -262144 -1 -1 0
1;
#X obj 218 280 tgl 15 0 empty empty empty 17 7 0 10 -262144 -1 -1 0
1;
#X msg 463 215 0;
#X msg 434 215 1;
#X msg 405 215 0;
#X msg 376 215 1;
#X msg 523 215 0;
#X msg 492 215 1;
#X obj 376 84 random 3;
#X floatatom 376 116 5 0 0 0 - - -;
#X obj 376 145 select 0 1 2;
#X obj 82 308 *~;
#X obj 142 308 *~;
#X obj 203 308 *~;
#X obj 141 361 outlet~;
#X obj 202 176 expr~ $v1 > $v2;
#X obj 289 138 / 100;
#X obj 289 87 random 100;
#X obj 376 53 r bang2;
#X connect 0 0 17 0;
#X connect 1 0 18 0;
#X connect 2 0 21 0;
#X connect 3 0 0 0;
#X connect 3 0 1 0;
#X connect 3 0 2 0;
#X connect 4 0 22 0;
#X connect 5 0 17 1;
#X connect 6 0 18 1;
#X connect 7 0 19 1;
#X connect 8 0 6 0;
#X connect 9 0 6 0;
#X connect 10 0 5 0;
#X connect 11 0 5 0;
#X connect 12 0 7 0;
#X connect 13 0 7 0;
#X connect 14 0 15 0;
#X connect 15 0 16 0;
#X connect 16 0 8 0;
#X connect 16 0 11 0;
#X connect 16 0 12 0;
#X connect 16 1 9 0;
#X connect 16 1 10 0;
#X connect 16 1 12 0;
#X connect 16 2 13 0;
#X connect 16 2 8 0;
#X connect 16 2 10 0;
#X connect 17 0 20 0;
#X connect 18 0 20 0;
#X connect 19 0 20 0;
#X connect 21 0 19 0;
#X connect 22 0 21 1;
#X connect 23 0 4 0;
#X connect 24 0 14 0;
#X connect 24 0 23 0;
#X restore 108 228 pd wavsel7;
#N canvas 0 50 640 456 wavsel8 0;
#X obj 82 177 osc~;
#X obj 142 177 phasor~;
#X obj 202 155 phasor~;
#X obj 141 104 inlet~;
#X floatatom 289 114 5 0 0 0 - - -;
#X obj 97 280 tgl 15 0 empty empty empty 17 7 0 10 -262144 -1 -1 0
1;
#X obj 157 280 tgl 15 0 empty empty empty 17 7 0 10 -262144 -1 -1 0
1;
#X obj 218 280 tgl 15 0 empty empty empty 17 7 0 10 -262144 -1 -1 0
1;
#X msg 463 215 0;
#X msg 434 215 1;
#X msg 405 215 0;
#X msg 376 215 1;
#X msg 523 215 0;
#X msg 492 215 1;
#X obj 376 84 random 3;
#X floatatom 376 116 5 0 0 0 - - -;
#X obj 376 145 select 0 1 2;
#X obj 82 308 *~;
#X obj 142 308 *~;
#X obj 203 308 *~;
#X obj 141 361 outlet~;
#X obj 202 176 expr~ $v1 > $v2;
#X obj 289 138 / 100;
#X obj 289 87 random 100;
#X obj 376 53 r bang4;
#X connect 0 0 17 0;
#X connect 1 0 18 0;
#X connect 2 0 21 0;
#X connect 3 0 0 0;
#X connect 3 0 1 0;
#X connect 3 0 2 0;
#X connect 4 0 22 0;
#X connect 5 0 17 1;
#X connect 6 0 18 1;
#X connect 7 0 19 1;
#X connect 8 0 6 0;
#X connect 9 0 6 0;
#X connect 10 0 5 0;
#X connect 11 0 5 0;
#X connect 12 0 7 0;
#X connect 13 0 7 0;
#X connect 14 0 15 0;
#X connect 15 0 16 0;
#X connect 16 0 8 0;
#X connect 16 0 11 0;
#X connect 16 0 12 0;
#X connect 16 1 9 0;
#X connect 16 1 10 0;
#X connect 16 1 12 0;
#X connect 16 2 13 0;
#X connect 16 2 8 0;
#X connect 16 2 10 0;
#X connect 17 0 20 0;
#X connect 18 0 20 0;
#X connect 19 0 20 0;
#X connect 21 0 19 0;
#X connect 22 0 21 1;
#X connect 23 0 4 0;
#X connect 24 0 14 0;
#X connect 24 0 23 0;
#X restore 394 206 pd wavsel8;
#X obj 254 585 bng 15 250 50 0 empty bang4 empty 17 7 0 10 -262144
-1 -1;
#X obj 254 745 random 100;
#X obj 254 766 * 0.01;
#X floatatom 254 787 5 0 0 0 - - -;
#X obj 184 792 loadbang;
#X obj 394 -10 * 4;
#X obj 108 2 * 4;
#X obj 411 780 hsl 70 15 0.1 0.5 0 0 empty empty empty -2 -8 0 10 -262144
-1 -1 0 1;
#X obj 408 715 random 50;
#X obj 408 736 * 0.01;
#X floatatom 408 757 5 0 0 0 - - -;
#X obj 125 767 hsl 70 15 0.1 0.5 0 0 empty empty empty -2 -8 0 10 -262144
-1 -1 0 1;
#X obj 122 702 random 50;
#X obj 122 723 * 0.01;
#X floatatom 122 744 5 0 0 0 - - -;
#X obj 393 806 *~;
#X obj 107 802 *~;
#X obj 432 279 random 10;
#X obj 501 263 random 1000;
#X obj 501 284 clip 500 1000;
#X obj 148 298 random 10;
#X obj 217 282 random 1000;
#X obj 217 303 clip 500 1000;
#X connect 0 0 1 0;
#X connect 1 0 2 0;
#X connect 2 0 3 0;
#X connect 3 0 68 0;
#X connect 4 0 2 1;
#X connect 5 0 6 0;
#X connect 6 0 7 0;
#X connect 7 0 8 0;
#X connect 8 0 69 0;
#X connect 9 0 7 1;
#X connect 10 0 4 0;
#X connect 10 0 9 0;
#X connect 11 0 12 0;
#X connect 12 0 13 0;
#X connect 13 0 28 0;
#X connect 13 0 28 1;
#X connect 14 0 15 0;
#X connect 15 0 16 0;
#X connect 16 0 17 0;
#X connect 17 0 28 1;
#X connect 17 0 28 0;
#X connect 18 0 64 0;
#X connect 18 0 86 0;
#X connect 19 0 66 0;
#X connect 19 0 85 0;
#X connect 20 0 11 0;
#X connect 21 0 22 0;
#X connect 22 0 23 0;
#X connect 23 0 0 0;
#X connect 24 0 25 0;
#X connect 25 0 26 0;
#X connect 26 0 5 0;
#X connect 27 0 18 1;
#X connect 28 0 62 0;
#X connect 28 1 63 0;
#X connect 29 0 28 0;
#X connect 30 0 28 0;
#X connect 31 0 29 0;
#X connect 31 0 32 0;
#X connect 31 0 36 0;
#X connect 32 0 30 0;
#X connect 32 0 33 0;
#X connect 37 0 46 0;
#X connect 38 0 37 1;
#X connect 40 0 43 0;
#X connect 41 0 40 1;
#X connect 43 0 27 0;
#X connect 44 0 27 0;
#X connect 45 0 40 0;
#X connect 46 0 44 0;
#X connect 46 1 45 0;
#X connect 47 0 19 1;
#X connect 48 0 57 0;
#X connect 49 0 48 1;
#X connect 51 0 54 0;
#X connect 52 0 51 1;
#X connect 54 0 47 0;
#X connect 55 0 47 0;
#X connect 56 0 51 0;
#X connect 57 0 55 0;
#X connect 57 1 56 0;
#X connect 58 0 37 0;
#X connect 58 0 90 0;
#X connect 58 0 91 0;
#X connect 59 0 48 0;
#X connect 59 0 87 0;
#X connect 59 0 88 0;
#X connect 60 0 10 0;
#X connect 60 0 76 0;
#X connect 61 0 75 0;
#X connect 65 0 5 1;
#X connect 67 0 0 1;
#X connect 68 0 18 0;
#X connect 69 0 19 0;
#X connect 70 0 71 0;
#X connect 70 0 78 0;
#X connect 70 0 82 0;
#X connect 71 0 72 0;
#X connect 72 0 73 0;
#X connect 73 0 31 0;
#X connect 74 0 31 0;
#X connect 75 0 24 0;
#X connect 76 0 21 0;
#X connect 77 0 85 1;
#X connect 78 0 79 0;
#X connect 79 0 80 0;
#X connect 80 0 77 0;
#X connect 81 0 86 1;
#X connect 82 0 83 0;
#X connect 83 0 84 0;
#X connect 84 0 81 0;
#X connect 85 0 14 0;
#X connect 86 0 20 0;
#X connect 87 0 49 0;
#X connect 88 0 89 0;
#X connect 89 0 52 0;
#X connect 90 0 38 0;
#X connect 91 0 92 0;
#X connect 92 0 41 0;
#X restore 87 668 pd value4;
#N canvas 172 0 778 966 value5 0;
#X obj 105 159 +~;
#X obj 105 183 osc~ 1;
#X obj 105 234 *~ 1;
#X obj 105 255 +~ 440;
#X floatatom 126 212 5 0 0 0 - - -;
#X obj 391 156 +~;
#X obj 391 177 osc~ 1;
#X obj 391 228 *~ 1;
#X obj 391 249 +~ 440;
#X floatatom 410 205 5 0 0 0 - - -;
#X obj 241 237 + 20;
#X obj 106 915 hip~ 10;
#X obj 106 936 hip~ 10;
#X obj 106 957 hip~ 10;
#X obj 390 874 hip~ 10;
#X obj 390 895 hip~ 10;
#X obj 390 916 hip~ 10;
#X obj 390 937 hip~ 10;
#X obj 105 598 *~;
#X obj 391 586 *~;
#X obj 106 894 hip~ 10;
#X floatatom 105 64 5 0 0 0 - - -;
#X obj 105 91 list-abs/list-round;
#X floatatom 105 112 5 0 0 0 - - -;
#X floatatom 391 65 5 0 0 0 - - -;
#X obj 391 92 list-abs/list-round;
#X floatatom 391 113 5 0 0 0 - - -;
#X obj 121 566 line~;
#X obj 187 1121 freeverb~/freeverb~;
#X msg 208 987 wet \$1;
#X msg 256 987 dry \$1;
#X obj 211 932 hsl 128 15 0 1 0 0 empty empty empty -2 -8 0 10 -262144
-1 -1 0 1;
#N canvas 1 80 450 300 inv 0;
#X obj 154 69 inlet;
#X obj 154 179 outlet;
#X msg 154 124 1;
#X obj 154 97 t b f;
#X obj 154 151 -;
#X connect 0 0 3 0;
#X connect 2 0 4 0;
#X connect 3 0 2 0;
#X connect 3 1 4 1;
#X connect 4 0 1 0;
#X restore 256 960 pd inv;
#X floatatom 314 985 5 0 0 0 - - -;
#X text 199 916 dry;
#X text 324 915 wet;
#X floatatom 215 961 5 0 0 0 - - -;
#X obj 121 427 f;
#X obj 146 397 nbx 4 14 5 1000 1 0 empty empty attack 0 -8 0 10 -262144
-1 -1 5 256;
#X text 195 397 ms;
#X obj 168 518 f;
#X obj 215 515 nbx 4 14 10 10000 1 1 empty empty decay 0 -8 0 10 -262144
-1 -1 500 256;
#X text 262 514 ms;
#X msg 168 541 0 \$1;
#X msg 121 496 1 \$1;
#X obj 168 480 delay;
#X obj 121 450 t f f;
#X obj 405 555 line~;
#X obj 405 416 f;
#X obj 430 386 nbx 4 14 5 1000 1 0 empty empty attack 0 -8 0 10 -262144
-1 -1 5 256;
#X text 479 386 ms;
#X obj 452 507 f;
#X obj 499 504 nbx 4 14 10 10000 1 1 empty empty decay 0 -8 0 10 -262144
-1 -1 784 256;
#X text 546 503 ms;
#X msg 452 530 0 \$1;
#X msg 405 485 1 \$1;
#X obj 452 469 delay;
#X obj 405 439 t f f;
#X obj 121 328 bng 15 250 50 0 empty bang5 empty 17 7 0 10 -262144
-1 -1;
#X obj 405 314 bng 15 250 50 0 empty bang5 empty 17 7 0 10 -262144
-1 -1;
#X obj 106 6 inlet;
#X obj 392 25 inlet;
#X obj 188 1179 outlet~;
#X obj 297 1179 outlet~;
#X obj 184 630 send~ i;
#X obj 407 134 receive~ i;
#X obj 303 634 send~ j;
#X obj 121 137 receive~ j;
#N canvas 952 515 958 451 wavsel9 0;
#X obj 82 177 osc~;
#X obj 142 177 phasor~;
#X obj 202 155 phasor~;
#X obj 141 104 inlet~;
#X floatatom 289 114 5 0 0 0 - - -;
#X obj 97 280 tgl 15 0 empty empty empty 17 7 0 10 -262144 -1 -1 0
1;
#X obj 157 280 tgl 15 0 empty empty empty 17 7 0 10 -262144 -1 -1 0
1;
#X obj 218 280 tgl 15 0 empty empty empty 17 7 0 10 -262144 -1 -1 0
1;
#X msg 463 215 0;
#X msg 434 215 1;
#X msg 405 215 0;
#X msg 376 215 1;
#X msg 523 215 0;
#X msg 492 215 1;
#X obj 376 84 random 3;
#X floatatom 376 116 5 0 0 0 - - -;
#X obj 376 145 select 0 1 2;
#X obj 82 308 *~;
#X obj 142 308 *~;
#X obj 203 308 *~;
#X obj 141 361 outlet~;
#X obj 202 176 expr~ $v1 > $v2;
#X obj 289 138 / 100;
#X obj 289 87 random 100;
#X obj 376 53 r bang2;
#X connect 0 0 17 0;
#X connect 1 0 18 0;
#X connect 2 0 21 0;
#X connect 3 0 0 0;
#X connect 3 0 1 0;
#X connect 3 0 2 0;
#X connect 4 0 22 0;
#X connect 5 0 17 1;
#X connect 6 0 18 1;
#X connect 7 0 19 1;
#X connect 8 0 6 0;
#X connect 9 0 6 0;
#X connect 10 0 5 0;
#X connect 11 0 5 0;
#X connect 12 0 7 0;
#X connect 13 0 7 0;
#X connect 14 0 15 0;
#X connect 15 0 16 0;
#X connect 16 0 8 0;
#X connect 16 0 11 0;
#X connect 16 0 12 0;
#X connect 16 1 9 0;
#X connect 16 1 10 0;
#X connect 16 1 12 0;
#X connect 16 2 13 0;
#X connect 16 2 8 0;
#X connect 16 2 10 0;
#X connect 17 0 20 0;
#X connect 18 0 20 0;
#X connect 19 0 20 0;
#X connect 21 0 19 0;
#X connect 22 0 21 1;
#X connect 23 0 4 0;
#X connect 24 0 14 0;
#X connect 24 0 23 0;
#X restore 106 276 pd wavsel9;
#N canvas 0 50 640 456 wavsel10 0;
#X obj 82 177 osc~;
#X obj 142 177 phasor~;
#X obj 202 155 phasor~;
#X obj 141 104 inlet~;
#X floatatom 289 114 5 0 0 0 - - -;
#X obj 97 280 tgl 15 0 empty empty empty 17 7 0 10 -262144 -1 -1 0
1;
#X obj 157 280 tgl 15 0 empty empty empty 17 7 0 10 -262144 -1 -1 0
1;
#X obj 218 280 tgl 15 0 empty empty empty 17 7 0 10 -262144 -1 -1 0
1;
#X msg 463 215 0;
#X msg 434 215 1;
#X msg 405 215 0;
#X msg 376 215 1;
#X msg 523 215 0;
#X msg 492 215 1;
#X obj 376 84 random 3;
#X floatatom 376 116 5 0 0 0 - - -;
#X obj 376 145 select 0 1 2;
#X obj 82 308 *~;
#X obj 142 308 *~;
#X obj 203 308 *~;
#X obj 141 361 outlet~;
#X obj 202 176 expr~ $v1 > $v2;
#X obj 289 138 / 100;
#X obj 289 87 random 100;
#X obj 376 53 r bang2;
#X connect 0 0 17 0;
#X connect 1 0 18 0;
#X connect 2 0 21 0;
#X connect 3 0 0 0;
#X connect 3 0 1 0;
#X connect 3 0 2 0;
#X connect 4 0 22 0;
#X connect 5 0 17 1;
#X connect 6 0 18 1;
#X connect 7 0 19 1;
#X connect 8 0 6 0;
#X connect 9 0 6 0;
#X connect 10 0 5 0;
#X connect 11 0 5 0;
#X connect 12 0 7 0;
#X connect 13 0 7 0;
#X connect 14 0 15 0;
#X connect 15 0 16 0;
#X connect 16 0 8 0;
#X connect 16 0 11 0;
#X connect 16 0 12 0;
#X connect 16 1 9 0;
#X connect 16 1 10 0;
#X connect 16 1 12 0;
#X connect 16 2 13 0;
#X connect 16 2 8 0;
#X connect 16 2 10 0;
#X connect 17 0 20 0;
#X connect 18 0 20 0;
#X connect 19 0 20 0;
#X connect 21 0 19 0;
#X connect 22 0 21 1;
#X connect 23 0 4 0;
#X connect 24 0 14 0;
#X connect 24 0 23 0;
#X restore 392 272 pd wavsel10;
#X obj 252 651 bng 15 250 50 0 empty bang5 empty 17 7 0 10 -262144
-1 -1;
#X obj 252 782 random 100;
#X obj 252 803 * 0.01;
#X floatatom 252 824 5 0 0 0 - - -;
#X obj 182 829 loadbang;
#X obj 106 45 * 4;
#X obj 392 46 * 4;
#X obj 409 807 hsl 70 15 0.1 0.5 0 0 empty empty empty -2 -8 0 10 -262144
-1 -1 0 1;
#X obj 406 742 random 50;
#X obj 406 763 * 0.01;
#X floatatom 406 784 5 0 0 0 - - -;
#X obj 123 794 hsl 70 15 0.1 0.5 0 0 empty empty empty -2 -8 0 10 -262144
-1 -1 0 1;
#X obj 120 729 random 50;
#X obj 120 750 * 0.01;
#X floatatom 120 771 5 0 0 0 - - -;
#X obj 391 852 *~;
#X obj 105 870 *~;
#X obj 430 343 random 10;
#X obj 499 327 random 1000;
#X obj 499 348 clip 500 1000;
#X obj 146 357 random 10;
#X obj 215 341 random 1000;
#X obj 215 362 clip 500 1000;
#X connect 0 0 1 0;
#X connect 1 0 2 0;
#X connect 2 0 3 0;
#X connect 3 0 68 0;
#X connect 4 0 2 1;
#X connect 5 0 6 0;
#X connect 6 0 7 0;
#X connect 7 0 8 0;
#X connect 8 0 69 0;
#X connect 9 0 7 1;
#X connect 10 0 4 0;
#X connect 10 0 9 0;
#X connect 11 0 12 0;
#X connect 12 0 13 0;
#X connect 13 0 28 0;
#X connect 13 0 28 1;
#X connect 14 0 15 0;
#X connect 15 0 16 0;
#X connect 16 0 17 0;
#X connect 17 0 28 1;
#X connect 17 0 28 0;
#X connect 18 0 64 0;
#X connect 18 0 86 0;
#X connect 19 0 66 0;
#X connect 19 0 85 0;
#X connect 20 0 11 0;
#X connect 21 0 22 0;
#X connect 22 0 23 0;
#X connect 23 0 0 0;
#X connect 24 0 25 0;
#X connect 25 0 26 0;
#X connect 26 0 5 0;
#X connect 27 0 18 1;
#X connect 28 0 62 0;
#X connect 28 1 63 0;
#X connect 29 0 28 0;
#X connect 30 0 28 0;
#X connect 31 0 29 0;
#X connect 31 0 32 0;
#X connect 31 0 36 0;
#X connect 32 0 30 0;
#X connect 32 0 33 0;
#X connect 37 0 46 0;
#X connect 38 0 37 1;
#X connect 40 0 43 0;
#X connect 41 0 40 1;
#X connect 43 0 27 0;
#X connect 44 0 27 0;
#X connect 45 0 40 0;
#X connect 46 0 44 0;
#X connect 46 1 45 0;
#X connect 47 0 19 1;
#X connect 48 0 57 0;
#X connect 49 0 48 1;
#X connect 51 0 54 0;
#X connect 52 0 51 1;
#X connect 54 0 47 0;
#X connect 55 0 47 0;
#X connect 56 0 51 0;
#X connect 57 0 55 0;
#X connect 57 1 56 0;
#X connect 58 0 37 0;
#X connect 58 0 90 0;
#X connect 58 0 91 0;
#X connect 59 0 48 0;
#X connect 59 0 87 0;
#X connect 59 0 88 0;
#X connect 60 0 10 0;
#X connect 60 0 75 0;
#X connect 61 0 76 0;
#X connect 65 0 5 1;
#X connect 67 0 0 1;
#X connect 68 0 18 0;
#X connect 69 0 19 0;
#X connect 70 0 71 0;
#X connect 70 0 78 0;
#X connect 70 0 82 0;
#X connect 71 0 72 0;
#X connect 72 0 73 0;
#X connect 73 0 31 0;
#X connect 74 0 31 0;
#X connect 75 0 21 0;
#X connect 76 0 24 0;
#X connect 77 0 85 1;
#X connect 78 0 79 0;
#X connect 79 0 80 0;
#X connect 80 0 77 0;
#X connect 81 0 86 1;
#X connect 82 0 83 0;
#X connect 83 0 84 0;
#X connect 84 0 81 0;
#X connect 85 0 14 0;
#X connect 86 0 20 0;
#X connect 87 0 49 0;
#X connect 88 0 89 0;
#X connect 89 0 52 0;
#X connect 90 0 38 0;
#X connect 91 0 92 0;
#X connect 92 0 41 0;
#X restore 193 669 pd value5;
#N canvas 362 0 958 966 value6 0;
#X obj 78 228 +~;
#X obj 78 252 osc~ 1;
#X obj 78 303 *~ 1;
#X obj 78 324 +~ 440;
#X floatatom 97 280 5 0 0 0 - - -;
#X obj 364 252 +~;
#X obj 364 273 osc~ 1;
#X obj 364 324 *~ 1;
#X obj 364 345 +~ 440;
#X floatatom 383 301 5 0 0 0 - - -;
#X obj 214 296 + 20;
#X obj 79 1010 hip~ 10;
#X obj 79 1031 hip~ 10;
#X obj 79 1052 hip~ 10;
#X obj 363 969 hip~ 10;
#X obj 363 990 hip~ 10;
#X obj 363 1011 hip~ 10;
#X obj 363 1032 hip~ 10;
#X obj 78 703 *~;
#X obj 364 691 *~;
#X obj 79 989 hip~ 10;
#X floatatom 78 123 5 0 0 0 - - -;
#X obj 78 150 list-abs/list-round;
#X floatatom 78 171 5 0 0 0 - - -;
#X floatatom 364 130 5 0 0 0 - - -;
#X obj 364 157 list-abs/list-round;
#X floatatom 364 178 5 0 0 0 - - -;
#X obj 94 671 line~;
#X obj 160 1216 freeverb~/freeverb~;
#X msg 181 1082 wet \$1;
#X msg 229 1082 dry \$1;
#X obj 184 1027 hsl 128 15 0 1 0 0 empty empty empty -2 -8 0 10 -262144
-1 -1 0 1;
#N canvas 1 80 450 300 inv 0;
#X obj 154 69 inlet;
#X obj 154 179 outlet;
#X msg 154 124 1;
#X obj 154 97 t b f;
#X obj 154 151 -;
#X connect 0 0 3 0;
#X connect 2 0 4 0;
#X connect 3 0 2 0;
#X connect 3 1 4 1;
#X connect 4 0 1 0;
#X restore 229 1055 pd inv;
#X floatatom 287 1080 5 0 0 0 - - -;
#X text 172 1011 dry;
#X text 297 1010 wet;
#X floatatom 188 1056 5 0 0 0 - - -;
#X obj 94 532 f;
#X obj 119 502 nbx 4 14 5 1000 1 0 empty empty attack 0 -8 0 10 -262144
-1 -1 5 256;
#X text 168 502 ms;
#X obj 141 623 f;
#X obj 188 620 nbx 4 14 10 10000 1 1 empty empty decay 0 -8 0 10 -262144
-1 -1 602 256;
#X text 235 619 ms;
#X msg 141 646 0 \$1;
#X msg 94 601 1 \$1;
#X obj 141 585 delay;
#X obj 94 555 t f f;
#X obj 378 660 line~;
#X obj 378 521 f;
#X obj 403 491 nbx 4 14 5 1000 1 0 empty empty attack 0 -8 0 10 -262144
-1 -1 5 256;
#X text 452 491 ms;
#X obj 425 612 f;
#X obj 472 609 nbx 4 14 10 10000 1 1 empty empty decay 0 -8 0 10 -262144
-1 -1 500 256;
#X text 519 608 ms;
#X msg 425 635 0 \$1;
#X msg 378 590 1 \$1;
#X obj 425 574 delay;
#X obj 378 544 t f f;
#X obj 94 424 bng 15 250 50 0 empty bang6 empty 17 7 0 10 -262144 -1
-1;
#X obj 378 416 bng 15 250 50 0 empty bang6 empty 17 7 0 10 -262144
-1 -1;
#X obj 79 65 inlet;
#X obj 365 84 inlet;
#X obj 161 1274 outlet~;
#X obj 270 1274 outlet~;
#N canvas 952 515 958 451 wavsel11 0;
#X obj 82 177 osc~;
#X obj 142 177 phasor~;
#X obj 202 155 phasor~;
#X obj 141 104 inlet~;
#X floatatom 289 114 5 0 0 0 - - -;
#X obj 97 280 tgl 15 0 empty empty empty 17 7 0 10 -262144 -1 -1 0
1;
#X obj 157 280 tgl 15 0 empty empty empty 17 7 0 10 -262144 -1 -1 0
1;
#X obj 218 280 tgl 15 0 empty empty empty 17 7 0 10 -262144 -1 -1 0
1;
#X msg 463 215 0;
#X msg 434 215 1;
#X msg 405 215 0;
#X msg 376 215 1;
#X msg 523 215 0;
#X msg 492 215 1;
#X obj 376 84 random 3;
#X floatatom 376 116 5 0 0 0 - - -;
#X obj 376 145 select 0 1 2;
#X obj 82 308 *~;
#X obj 142 308 *~;
#X obj 203 308 *~;
#X obj 141 361 outlet~;
#X obj 202 176 expr~ $v1 > $v2;
#X obj 289 138 / 100;
#X obj 289 87 random 100;
#X obj 376 53 r bang6;
#X connect 0 0 17 0;
#X connect 1 0 18 0;
#X connect 2 0 21 0;
#X connect 3 0 0 0;
#X connect 3 0 1 0;
#X connect 3 0 2 0;
#X connect 4 0 22 0;
#X connect 5 0 17 1;
#X connect 6 0 18 1;
#X connect 7 0 19 1;
#X connect 8 0 6 0;
#X connect 9 0 6 0;
#X connect 10 0 5 0;
#X connect 11 0 5 0;
#X connect 12 0 7 0;
#X connect 13 0 7 0;
#X connect 14 0 15 0;
#X connect 15 0 16 0;
#X connect 16 0 8 0;
#X connect 16 0 11 0;
#X connect 16 0 12 0;
#X connect 16 1 9 0;
#X connect 16 1 10 0;
#X connect 16 1 12 0;
#X connect 16 2 13 0;
#X connect 16 2 8 0;
#X connect 16 2 10 0;
#X connect 17 0 20 0;
#X connect 18 0 20 0;
#X connect 19 0 20 0;
#X connect 21 0 19 0;
#X connect 22 0 21 1;
#X connect 23 0 4 0;
#X connect 24 0 14 0;
#X connect 24 0 23 0;
#X restore 79 345 pd wavsel11;
#N canvas 0 50 640 456 wavsel12 0;
#X obj 82 177 osc~;
#X obj 142 177 phasor~;
#X obj 202 155 phasor~;
#X obj 141 104 inlet~;
#X floatatom 289 114 5 0 0 0 - - -;
#X obj 97 280 tgl 15 0 empty empty empty 17 7 0 10 -262144 -1 -1 0
1;
#X obj 157 280 tgl 15 0 empty empty empty 17 7 0 10 -262144 -1 -1 0
1;
#X obj 218 280 tgl 15 0 empty empty empty 17 7 0 10 -262144 -1 -1 0
1;
#X msg 463 215 0;
#X msg 434 215 1;
#X msg 405 215 0;
#X msg 376 215 1;
#X msg 523 215 0;
#X msg 492 215 1;
#X obj 376 84 random 3;
#X floatatom 376 116 5 0 0 0 - - -;
#X obj 376 145 select 0 1 2;
#X obj 82 308 *~;
#X obj 142 308 *~;
#X obj 203 308 *~;
#X obj 141 361 outlet~;
#X obj 202 176 expr~ $v1 > $v2;
#X obj 289 138 / 100;
#X obj 289 87 random 100;
#X obj 376 53 r bang2;
#X connect 0 0 17 0;
#X connect 1 0 18 0;
#X connect 2 0 21 0;
#X connect 3 0 0 0;
#X connect 3 0 1 0;
#X connect 3 0 2 0;
#X connect 4 0 22 0;
#X connect 5 0 17 1;
#X connect 6 0 18 1;
#X connect 7 0 19 1;
#X connect 8 0 6 0;
#X connect 9 0 6 0;
#X connect 10 0 5 0;
#X connect 11 0 5 0;
#X connect 12 0 7 0;
#X connect 13 0 7 0;
#X connect 14 0 15 0;
#X connect 15 0 16 0;
#X connect 16 0 8 0;
#X connect 16 0 11 0;
#X connect 16 0 12 0;
#X connect 16 1 9 0;
#X connect 16 1 10 0;
#X connect 16 1 12 0;
#X connect 16 2 13 0;
#X connect 16 2 8 0;
#X connect 16 2 10 0;
#X connect 17 0 20 0;
#X connect 18 0 20 0;
#X connect 19 0 20 0;
#X connect 21 0 19 0;
#X connect 22 0 21 1;
#X connect 23 0 4 0;
#X connect 24 0 14 0;
#X connect 24 0 23 0;
#X restore 365 372 pd wavsel12;
#X obj 157 735 send~ k;
#X obj 380 210 receive~ k;
#X obj 276 739 send~ l;
#X obj 94 196 receive~ l;
#X obj 231 768 bng 15 250 50 0 empty bang6 empty 17 7 0 10 -262144
-1 -1;
#X obj 231 908 random 100;
#X obj 231 929 * 0.01;
#X floatatom 231 950 5 0 0 0 - - -;
#X obj 161 955 loadbang;
#X obj 365 111 * 4;
#X obj 79 104 * 4;
#X obj 382 899 hsl 70 15 0.1 0.5 0 0 empty empty empty -2 -8 0 10 -262144
-1 -1 0 1;
#X obj 379 834 random 50;
#X obj 379 855 * 0.01;
#X floatatom 379 876 5 0 0 0 - - -;
#X obj 96 886 hsl 70 15 0.1 0.5 0 0 empty empty empty -2 -8 0 10 -262144
-1 -1 0 1;
#X obj 93 821 random 50;
#X obj 93 842 * 0.01;
#X floatatom 93 863 5 0 0 0 - - -;
#X obj 78 965 *~;
#X obj 364 948 *~;
#X obj 403 445 random 10;
#X obj 472 429 random 1000;
#X obj 472 450 clip 500 1000;
#X obj 119 453 random 10;
#X obj 188 437 random 1000;
#X obj 188 458 clip 500 1000;
#X connect 0 0 1 0;
#X connect 1 0 2 0;
#X connect 2 0 3 0;
#X connect 3 0 64 0;
#X connect 4 0 2 1;
#X connect 5 0 6 0;
#X connect 6 0 7 0;
#X connect 7 0 8 0;
#X connect 8 0 65 0;
#X connect 9 0 7 1;
#X connect 10 0 4 0;
#X connect 10 0 9 0;
#X connect 11 0 12 0;
#X connect 12 0 13 0;
#X connect 13 0 28 0;
#X connect 13 0 28 1;
#X connect 14 0 15 0;
#X connect 15 0 16 0;
#X connect 16 0 17 0;
#X connect 17 0 28 1;
#X connect 17 0 28 0;
#X connect 18 0 66 0;
#X connect 18 0 85 0;
#X connect 19 0 68 0;
#X connect 19 0 86 0;
#X connect 20 0 11 0;
#X connect 21 0 22 0;
#X connect 22 0 23 0;
#X connect 23 0 0 0;
#X connect 24 0 25 0;
#X connect 25 0 26 0;
#X connect 26 0 5 0;
#X connect 27 0 18 1;
#X connect 28 0 62 0;
#X connect 28 1 63 0;
#X connect 29 0 28 0;
#X connect 30 0 28 0;
#X connect 31 0 29 0;
#X connect 31 0 32 0;
#X connect 31 0 36 0;
#X connect 32 0 30 0;
#X connect 32 0 33 0;
#X connect 37 0 46 0;
#X connect 38 0 37 1;
#X connect 40 0 43 0;
#X connect 41 0 40 1;
#X connect 43 0 27 0;
#X connect 44 0 27 0;
#X connect 45 0 40 0;
#X connect 46 0 44 0;
#X connect 46 1 45 0;
#X connect 47 0 19 1;
#X connect 48 0 57 0;
#X connect 49 0 48 1;
#X connect 51 0 54 0;
#X connect 52 0 51 1;
#X connect 54 0 47 0;
#X connect 55 0 47 0;
#X connect 56 0 51 0;
#X connect 57 0 55 0;
#X connect 57 1 56 0;
#X connect 58 0 37 0;
#X connect 58 0 90 0;
#X connect 58 0 91 0;
#X connect 59 0 48 0;
#X connect 59 0 87 0;
#X connect 59 0 88 0;
#X connect 60 0 10 0;
#X connect 60 0 76 0;
#X connect 61 0 75 0;
#X connect 64 0 18 0;
#X connect 65 0 19 0;
#X connect 67 0 5 1;
#X connect 69 0 0 1;
#X connect 70 0 71 0;
#X connect 70 0 78 0;
#X connect 70 0 82 0;
#X connect 71 0 72 0;
#X connect 72 0 73 0;
#X connect 73 0 31 0;
#X connect 74 0 31 0;
#X connect 75 0 24 0;
#X connect 76 0 21 0;
#X connect 77 0 86 1;
#X connect 78 0 79 0;
#X connect 79 0 80 0;
#X connect 80 0 77 0;
#X connect 81 0 85 1;
#X connect 82 0 83 0;
#X connect 83 0 84 0;
#X connect 84 0 81 0;
#X connect 85 0 20 0;
#X connect 86 0 14 0;
#X connect 87 0 49 0;
#X connect 88 0 89 0;
#X connect 89 0 52 0;
#X connect 90 0 38 0;
#X connect 91 0 92 0;
#X connect 92 0 41 0;
#X restore 300 668 pd value6;
#N canvas 497 0 621 966 value7 0;
#X obj 107 185 +~;
#X obj 107 208 osc~ 1;
#X obj 107 259 *~ 1;
#X obj 107 280 +~ 440;
#X floatatom 126 236 5 0 0 0 - - -;
#X obj 393 198 +~;
#X obj 393 219 osc~ 1;
#X obj 393 270 *~ 1;
#X obj 393 291 +~ 440;
#X floatatom 412 247 5 0 0 0 - - -;
#X obj 243 243 + 20;
#X obj 108 1037 hip~ 10;
#X obj 108 1058 hip~ 10;
#X obj 108 1079 hip~ 10;
#X obj 392 996 hip~ 10;
#X obj 392 1017 hip~ 10;
#X obj 392 1038 hip~ 10;
#X obj 392 1059 hip~ 10;
#X obj 107 720 *~;
#X obj 393 708 *~;
#X obj 108 1016 hip~ 10;
#X floatatom 107 70 5 0 0 0 - - -;
#X obj 107 97 list-abs/list-round;
#X floatatom 107 118 5 0 0 0 - - -;
#X floatatom 393 76 5 0 0 0 - - -;
#X obj 393 103 list-abs/list-round;
#X floatatom 393 124 5 0 0 0 - - -;
#X obj 123 688 line~;
#X obj 189 1243 freeverb~/freeverb~;
#X msg 210 1109 wet \$1;
#X msg 258 1109 dry \$1;
#X obj 213 1054 hsl 128 15 0 1 0 0 empty empty empty -2 -8 0 10 -262144
-1 -1 0 1;
#N canvas 1 80 450 300 inv 0;
#X obj 154 69 inlet;
#X obj 154 179 outlet;
#X msg 154 124 1;
#X obj 154 97 t b f;
#X obj 154 151 -;
#X connect 0 0 3 0;
#X connect 2 0 4 0;
#X connect 3 0 2 0;
#X connect 3 1 4 1;
#X connect 4 0 1 0;
#X restore 258 1082 pd inv;
#X floatatom 316 1107 5 0 0 0 - - -;
#X text 201 1038 dry;
#X text 326 1037 wet;
#X floatatom 217 1083 5 0 0 0 - - -;
#X obj 123 549 f;
#X obj 148 519 nbx 4 14 5 1000 1 0 empty empty attack 0 -8 0 10 -262144
-1 -1 5 256;
#X text 197 519 ms;
#X obj 170 640 f;
#X obj 217 637 nbx 4 14 10 10000 1 1 empty empty decay 0 -8 0 10 -262144
-1 -1 589 256;
#X text 264 636 ms;
#X msg 170 663 0 \$1;
#X msg 123 618 1 \$1;
#X obj 170 602 delay;
#X obj 123 572 t f f;
#X obj 407 677 line~;
#X obj 407 538 f;
#X obj 432 508 nbx 4 14 5 1000 1 0 empty empty attack 0 -8 0 10 -262144
-1 -1 5 256;
#X text 481 508 ms;
#X obj 454 629 f;
#X obj 501 626 nbx 4 14 10 10000 1 1 empty empty decay 0 -8 0 10 -262144
-1 -1 500 256;
#X text 548 625 ms;
#X msg 454 652 0 \$1;
#X msg 407 607 1 \$1;
#X obj 454 591 delay;
#X obj 407 561 t f f;
#X obj 123 398 bng 15 250 50 0 empty bang7 empty 17 7 0 10 -262144
-1 -1;
#X obj 407 433 bng 15 250 50 0 empty bang7 empty 17 7 0 10 -262144
-1 -1;
#X obj 108 12 inlet;
#X obj 394 31 inlet;
#X obj 190 1301 outlet~;
#X obj 299 1301 outlet~;
#X obj 186 752 send~ m;
#X obj 409 156 receive~ m;
#X obj 305 756 send~ n;
#X obj 123 143 receive~ n;
#N canvas 952 515 958 451 wavsel13 0;
#X obj 82 177 osc~;
#X obj 142 177 phasor~;
#X obj 202 155 phasor~;
#X obj 141 104 inlet~;
#X floatatom 289 114 5 0 0 0 - - -;
#X obj 97 280 tgl 15 0 empty empty empty 17 7 0 10 -262144 -1 -1 0
1;
#X obj 157 280 tgl 15 0 empty empty empty 17 7 0 10 -262144 -1 -1 0
1;
#X obj 218 280 tgl 15 0 empty empty empty 17 7 0 10 -262144 -1 -1 0
1;
#X msg 463 215 0;
#X msg 434 215 1;
#X msg 405 215 0;
#X msg 376 215 1;
#X msg 523 215 0;
#X msg 492 215 1;
#X obj 376 84 random 3;
#X floatatom 376 116 5 0 0 0 - - -;
#X obj 376 145 select 0 1 2;
#X obj 82 308 *~;
#X obj 142 308 *~;
#X obj 203 308 *~;
#X obj 141 361 outlet~;
#X obj 202 176 expr~ $v1 > $v2;
#X obj 289 138 / 100;
#X obj 289 87 random 100;
#X obj 376 53 r bang7;
#X connect 0 0 17 0;
#X connect 1 0 18 0;
#X connect 2 0 21 0;
#X connect 3 0 0 0;
#X connect 3 0 1 0;
#X connect 3 0 2 0;
#X connect 4 0 22 0;
#X connect 5 0 17 1;
#X connect 6 0 18 1;
#X connect 7 0 19 1;
#X connect 8 0 6 0;
#X connect 9 0 6 0;
#X connect 10 0 5 0;
#X connect 11 0 5 0;
#X connect 12 0 7 0;
#X connect 13 0 7 0;
#X connect 14 0 15 0;
#X connect 15 0 16 0;
#X connect 16 0 8 0;
#X connect 16 0 11 0;
#X connect 16 0 12 0;
#X connect 16 1 9 0;
#X connect 16 1 10 0;
#X connect 16 1 12 0;
#X connect 16 2 13 0;
#X connect 16 2 8 0;
#X connect 16 2 10 0;
#X connect 17 0 20 0;
#X connect 18 0 20 0;
#X connect 19 0 20 0;
#X connect 21 0 19 0;
#X connect 22 0 21 1;
#X connect 23 0 4 0;
#X connect 24 0 14 0;
#X connect 24 0 23 0;
#X restore 108 301 pd wavsel13;
#N canvas 0 50 640 456 wavsel14 0;
#X obj 82 177 osc~;
#X obj 142 177 phasor~;
#X obj 202 155 phasor~;
#X obj 141 104 inlet~;
#X floatatom 289 114 5 0 0 0 - - -;
#X obj 97 280 tgl 15 0 empty empty empty 17 7 0 10 -262144 -1 -1 0
1;
#X obj 157 280 tgl 15 0 empty empty empty 17 7 0 10 -262144 -1 -1 0
1;
#X obj 218 280 tgl 15 0 empty empty empty 17 7 0 10 -262144 -1 -1 0
1;
#X msg 463 215 0;
#X msg 434 215 1;
#X msg 405 215 0;
#X msg 376 215 1;
#X msg 523 215 0;
#X msg 492 215 1;
#X obj 376 84 random 3;
#X floatatom 376 116 5 0 0 0 - - -;
#X obj 376 145 select 0 1 2;
#X obj 82 308 *~;
#X obj 142 308 *~;
#X obj 203 308 *~;
#X obj 141 361 outlet~;
#X obj 202 176 expr~ $v1 > $v2;
#X obj 289 138 / 100;
#X obj 289 87 random 100;
#X obj 376 53 r bang2;
#X connect 0 0 17 0;
#X connect 1 0 18 0;
#X connect 2 0 21 0;
#X connect 3 0 0 0;
#X connect 3 0 1 0;
#X connect 3 0 2 0;
#X connect 4 0 22 0;
#X connect 5 0 17 1;
#X connect 6 0 18 1;
#X connect 7 0 19 1;
#X connect 8 0 6 0;
#X connect 9 0 6 0;
#X connect 10 0 5 0;
#X connect 11 0 5 0;
#X connect 12 0 7 0;
#X connect 13 0 7 0;
#X connect 14 0 15 0;
#X connect 15 0 16 0;
#X connect 16 0 8 0;
#X connect 16 0 11 0;
#X connect 16 0 12 0;
#X connect 16 1 9 0;
#X connect 16 1 10 0;
#X connect 16 1 12 0;
#X connect 16 2 13 0;
#X connect 16 2 8 0;
#X connect 16 2 10 0;
#X connect 17 0 20 0;
#X connect 18 0 20 0;
#X connect 19 0 20 0;
#X connect 21 0 19 0;
#X connect 22 0 21 1;
#X connect 23 0 4 0;
#X connect 24 0 14 0;
#X connect 24 0 23 0;
#X restore 394 328 pd wavsel14;
#X obj 274 804 bng 15 250 50 0 empty bang7 empty 17 7 0 10 -262144
-1 -1;
#X obj 274 914 random 100;
#X obj 274 935 * 0.01;
#X floatatom 274 956 5 0 0 0 - - -;
#X obj 204 961 loadbang;
#X obj 108 51 * 4;
#X obj 394 57 * 4;
#X obj 393 972 *~;
#X obj 107 968 *~;
#X obj 411 939 hsl 70 15 0.1 0.5 0 0 empty empty empty -2 -8 0 10 -262144
-1 -1 0 1;
#X obj 408 874 random 50;
#X obj 408 895 * 0.01;
#X floatatom 408 916 5 0 0 0 - - -;
#X obj 125 926 hsl 70 15 0.1 0.5 0 0 empty empty empty -2 -8 0 10 -262144
-1 -1 0 1;
#X obj 122 861 random 50;
#X obj 122 882 * 0.01;
#X floatatom 122 903 5 0 0 0 - - -;
#X obj 432 462 random 10;
#X obj 501 446 random 1000;
#X obj 501 467 clip 500 1000;
#X obj 148 427 random 10;
#X obj 217 411 random 1000;
#X obj 217 432 clip 500 1000;
#X connect 0 0 1 0;
#X connect 1 0 2 0;
#X connect 2 0 3 0;
#X connect 3 0 68 0;
#X connect 4 0 2 1;
#X connect 5 0 6 0;
#X connect 6 0 7 0;
#X connect 7 0 8 0;
#X connect 8 0 69 0;
#X connect 9 0 7 1;
#X connect 10 0 4 0;
#X connect 10 0 9 0;
#X connect 11 0 12 0;
#X connect 12 0 13 0;
#X connect 13 0 28 0;
#X connect 13 0 28 1;
#X connect 14 0 15 0;
#X connect 15 0 16 0;
#X connect 16 0 17 0;
#X connect 17 0 28 1;
#X connect 17 0 28 0;
#X connect 18 0 64 0;
#X connect 18 0 78 0;
#X connect 19 0 66 0;
#X connect 19 0 77 0;
#X connect 20 0 11 0;
#X connect 21 0 22 0;
#X connect 22 0 23 0;
#X connect 23 0 0 0;
#X connect 24 0 25 0;
#X connect 25 0 26 0;
#X connect 26 0 5 0;
#X connect 27 0 18 1;
#X connect 28 0 62 0;
#X connect 28 1 63 0;
#X connect 29 0 28 0;
#X connect 30 0 28 0;
#X connect 31 0 29 0;
#X connect 31 0 32 0;
#X connect 31 0 36 0;
#X connect 32 0 30 0;
#X connect 32 0 33 0;
#X connect 37 0 46 0;
#X connect 38 0 37 1;
#X connect 40 0 43 0;
#X connect 41 0 40 1;
#X connect 43 0 27 0;
#X connect 44 0 27 0;
#X connect 45 0 40 0;
#X connect 46 0 44 0;
#X connect 46 1 45 0;
#X connect 47 0 19 1;
#X connect 48 0 57 0;
#X connect 49 0 48 1;
#X connect 51 0 54 0;
#X connect 52 0 51 1;
#X connect 54 0 47 0;
#X connect 55 0 47 0;
#X connect 56 0 51 0;
#X connect 57 0 55 0;
#X connect 57 1 56 0;
#X connect 58 0 37 0;
#X connect 58 0 90 0;
#X connect 58 0 91 0;
#X connect 59 0 48 0;
#X connect 59 0 87 0;
#X connect 59 0 88 0;
#X connect 60 0 10 0;
#X connect 60 0 75 0;
#X connect 61 0 76 0;
#X connect 65 0 5 1;
#X connect 67 0 0 1;
#X connect 68 0 18 0;
#X connect 69 0 19 0;
#X connect 70 0 71 0;
#X connect 70 0 84 0;
#X connect 70 0 80 0;
#X connect 71 0 72 0;
#X connect 72 0 73 0;
#X connect 73 0 31 0;
#X connect 74 0 31 0;
#X connect 75 0 21 0;
#X connect 76 0 24 0;
#X connect 77 0 14 0;
#X connect 78 0 20 0;
#X connect 79 0 77 1;
#X connect 80 0 81 0;
#X connect 81 0 82 0;
#X connect 82 0 79 0;
#X connect 83 0 78 1;
#X connect 84 0 85 0;
#X connect 85 0 86 0;
#X connect 86 0 83 0;
#X connect 87 0 49 0;
#X connect 88 0 89 0;
#X connect 89 0 52 0;
#X connect 90 0 38 0;
#X connect 91 0 92 0;
#X connect 92 0 41 0;
#X restore 408 670 pd value7;
#N canvas 160 5 749 976 value8 0;
#X obj 107 170 +~;
#X obj 107 191 osc~ 1;
#X obj 107 235 *~ 1;
#X obj 107 256 +~ 440;
#X floatatom 128 212 5 0 0 0 - - -;
#X obj 393 155 +~;
#X obj 393 176 osc~ 1;
#X obj 393 219 *~ 1;
#X obj 393 240 +~ 440;
#X floatatom 414 196 5 0 0 0 - - -;
#X obj 243 163 + 20;
#X obj 108 761 hip~ 10;
#X obj 108 782 hip~ 10;
#X obj 108 803 hip~ 10;
#X obj 392 720 hip~ 10;
#X obj 392 741 hip~ 10;
#X obj 392 762 hip~ 10;
#X obj 392 783 hip~ 10;
#X obj 107 569 *~;
#X obj 393 557 *~;
#X obj 108 740 hip~ 10;
#X floatatom 107 86 5 0 0 0 - - -;
#X obj 107 106 list-abs/list-round;
#X floatatom 107 127 5 0 0 0 - - -;
#X floatatom 393 69 5 0 0 0 - - -;
#X obj 393 90 list-abs/list-round;
#X floatatom 393 111 5 0 0 0 - - -;
#X obj 123 537 line~;
#X obj 189 877 freeverb~/freeverb~;
#X msg 189 833 wet \$1;
#X msg 237 833 dry \$1;
#X obj 192 778 hsl 128 15 0 1 0 0 empty empty empty -2 -8 0 10 -262144
-1 -1 0 1;
#N canvas 1 80 450 300 inv 0;
#X obj 154 69 inlet;
#X obj 154 179 outlet;
#X msg 154 124 1;
#X obj 154 97 t b f;
#X obj 154 151 -;
#X connect 0 0 3 0;
#X connect 2 0 4 0;
#X connect 3 0 2 0;
#X connect 3 1 4 1;
#X connect 4 0 1 0;
#X restore 237 806 pd inv;
#X floatatom 295 831 5 0 0 0 - - -;
#X text 180 762 dry;
#X text 305 761 wet;
#X floatatom 196 807 5 0 0 0 - - -;
#X obj 123 398 f;
#X obj 148 368 nbx 4 14 5 1000 1 0 empty empty attack 0 -8 0 10 -262144
-1 -1 5 256;
#X text 197 368 ms;
#X obj 170 489 f;
#X obj 217 486 nbx 4 14 10 10000 1 1 empty empty decay 0 -8 0 10 -262144
-1 -1 500 256;
#X text 264 485 ms;
#X msg 170 512 0 \$1;
#X msg 123 467 1 \$1;
#X obj 170 451 delay;
#X obj 123 421 t f f;
#X obj 407 526 line~;
#X obj 407 387 f;
#X obj 432 357 nbx 4 14 5 1000 1 0 empty empty attack 0 -8 0 10 -262144
-1 -1 5 256;
#X text 481 357 ms;
#X obj 454 478 f;
#X obj 501 475 nbx 4 14 10 10000 1 1 empty empty decay 0 -8 0 10 -262144
-1 -1 500 256;
#X text 548 474 ms;
#X msg 454 501 0 \$1;
#X msg 407 456 1 \$1;
#X obj 454 440 delay;
#X obj 407 410 t f f;
#X obj 123 302 bng 15 250 50 0 empty bang8 empty 17 7 0 10 -262144
-1 -1;
#X obj 407 290 bng 15 250 50 0 empty bang8 empty 17 7 0 10 -262144
-1 -1;
#X obj 108 46 inlet;
#X obj 394 29 inlet;
#X obj 190 905 outlet~;
#X obj 299 905 outlet~;
#N canvas 952 515 958 451 wavsel15 0;
#X obj 82 177 osc~;
#X obj 142 177 phasor~;
#X obj 202 155 phasor~;
#X obj 141 104 inlet~;
#X floatatom 289 114 5 0 0 0 - - -;
#X obj 97 280 tgl 15 0 empty empty empty 17 7 0 10 -262144 -1 -1 0
1;
#X obj 157 280 tgl 15 0 empty empty empty 17 7 0 10 -262144 -1 -1 0
1;
#X obj 218 280 tgl 15 0 empty empty empty 17 7 0 10 -262144 -1 -1 0
1;
#X msg 463 215 0;
#X msg 434 215 1;
#X msg 405 215 0;
#X msg 376 215 1;
#X msg 523 215 0;
#X msg 492 215 1;
#X obj 376 84 random 3;
#X floatatom 376 116 5 0 0 0 - - -;
#X obj 376 145 select 0 1 2;
#X obj 82 308 *~;
#X obj 142 308 *~;
#X obj 203 308 *~;
#X obj 141 361 outlet~;
#X obj 202 176 expr~ $v1 > $v2;
#X obj 289 138 / 100;
#X obj 289 87 random 100;
#X obj 376 53 r bang8;
#X connect 0 0 17 0;
#X connect 1 0 18 0;
#X connect 2 0 21 0;
#X connect 3 0 0 0;
#X connect 3 0 1 0;
#X connect 3 0 2 0;
#X connect 4 0 22 0;
#X connect 5 0 17 1;
#X connect 6 0 18 1;
#X connect 7 0 19 1;
#X connect 8 0 6 0;
#X connect 9 0 6 0;
#X connect 10 0 5 0;
#X connect 11 0 5 0;
#X connect 12 0 7 0;
#X connect 13 0 7 0;
#X connect 14 0 15 0;
#X connect 15 0 16 0;
#X connect 16 0 8 0;
#X connect 16 0 11 0;
#X connect 16 0 12 0;
#X connect 16 1 9 0;
#X connect 16 1 10 0;
#X connect 16 1 12 0;
#X connect 16 2 13 0;
#X connect 16 2 8 0;
#X connect 16 2 10 0;
#X connect 17 0 20 0;
#X connect 18 0 20 0;
#X connect 19 0 20 0;
#X connect 21 0 19 0;
#X connect 22 0 21 1;
#X connect 23 0 4 0;
#X connect 24 0 14 0;
#X connect 24 0 23 0;
#X restore 108 277 pd wavsel15;
#N canvas 0 50 640 456 wavsel16 0;
#X obj 82 177 osc~;
#X obj 142 177 phasor~;
#X obj 202 155 phasor~;
#X obj 141 104 inlet~;
#X floatatom 289 114 5 0 0 0 - - -;
#X obj 97 280 tgl 15 0 empty empty empty 17 7 0 10 -262144 -1 -1 0
1;
#X obj 157 280 tgl 15 0 empty empty empty 17 7 0 10 -262144 -1 -1 0
1;
#X obj 218 280 tgl 15 0 empty empty empty 17 7 0 10 -262144 -1 -1 0
1;
#X msg 463 215 0;
#X msg 434 215 1;
#X msg 405 215 0;
#X msg 376 215 1;
#X msg 523 215 0;
#X msg 492 215 1;
#X obj 376 84 random 3;
#X floatatom 376 116 5 0 0 0 - - -;
#X obj 376 145 select 0 1 2;
#X obj 82 308 *~;
#X obj 142 308 *~;
#X obj 203 308 *~;
#X obj 141 361 outlet~;
#X obj 202 176 expr~ $v1 > $v2;
#X obj 289 138 / 100;
#X obj 289 87 random 100;
#X obj 376 53 r bang8;
#X connect 0 0 17 0;
#X connect 1 0 18 0;
#X connect 2 0 21 0;
#X connect 3 0 0 0;
#X connect 3 0 1 0;
#X connect 3 0 2 0;
#X connect 4 0 22 0;
#X connect 5 0 17 1;
#X connect 6 0 18 1;
#X connect 7 0 19 1;
#X connect 8 0 6 0;
#X connect 9 0 6 0;
#X connect 10 0 5 0;
#X connect 11 0 5 0;
#X connect 12 0 7 0;
#X connect 13 0 7 0;
#X connect 14 0 15 0;
#X connect 15 0 16 0;
#X connect 16 0 8 0;
#X connect 16 0 11 0;
#X connect 16 0 12 0;
#X connect 16 1 9 0;
#X connect 16 1 10 0;
#X connect 16 1 12 0;
#X connect 16 2 13 0;
#X connect 16 2 8 0;
#X connect 16 2 10 0;
#X connect 17 0 20 0;
#X connect 18 0 20 0;
#X connect 19 0 20 0;
#X connect 21 0 19 0;
#X connect 22 0 21 1;
#X connect 23 0 4 0;
#X connect 24 0 14 0;
#X connect 24 0 23 0;
#X restore 394 263 pd wavsel16;
#X obj 119 598 send~ o;
#X obj 409 132 receive~ o;
#X obj 405 585 send~ p;
#X obj 123 147 receive~ p;
#X obj 250 679 bng 15 250 50 0 empty bang8 empty 17 7 0 10 -262144
-1 -1;
#X obj 250 700 random 100;
#X obj 250 721 * 0.01;
#X floatatom 250 742 5 0 0 0 - - -;
#X obj 189 727 loadbang;
#X obj 394 50 * 4;
#X obj 108 67 * 4;
#X obj 411 674 hsl 70 15 0.1 0.5 0 0 empty empty empty -2 -8 0 10 -262144
-1 -1 0 1;
#X obj 408 609 random 50;
#X obj 408 630 * 0.01;
#X floatatom 408 651 5 0 0 0 - - -;
#X obj 125 686 hsl 70 15 0.1 0.5 0 0 empty empty empty -2 -8 0 10 -262144
-1 -1 0 1;
#X obj 122 621 random 50;
#X obj 122 642 * 0.01;
#X floatatom 122 663 5 0 0 0 - - -;
#X obj 393 699 *~;
#X obj 107 715 *~;
#X obj 432 319 random 10;
#X obj 501 303 random 1000;
#X obj 501 324 clip 500 1000;
#X obj 148 331 random 10;
#X obj 217 315 random 1000;
#X obj 217 336 clip 500 1000;
#X connect 0 0 1 0;
#X connect 1 0 2 0;
#X connect 2 0 3 0;
#X connect 3 0 64 0;
#X connect 4 0 2 1;
#X connect 5 0 6 0;
#X connect 6 0 7 0;
#X connect 7 0 8 0;
#X connect 8 0 65 0;
#X connect 9 0 7 1;
#X connect 10 0 4 0;
#X connect 10 0 9 0;
#X connect 11 0 12 0;
#X connect 12 0 13 0;
#X connect 13 0 28 0;
#X connect 13 0 28 1;
#X connect 14 0 15 0;
#X connect 15 0 16 0;
#X connect 16 0 17 0;
#X connect 17 0 28 1;
#X connect 17 0 28 0;
#X connect 18 0 66 0;
#X connect 18 0 86 0;
#X connect 19 0 68 0;
#X connect 19 0 85 0;
#X connect 20 0 11 0;
#X connect 21 0 22 0;
#X connect 22 0 23 0;
#X connect 23 0 0 0;
#X connect 24 0 25 0;
#X connect 25 0 26 0;
#X connect 26 0 5 0;
#X connect 27 0 18 1;
#X connect 28 0 62 0;
#X connect 28 1 63 0;
#X connect 29 0 28 0;
#X connect 30 0 28 0;
#X connect 31 0 29 0;
#X connect 31 0 32 0;
#X connect 31 0 36 0;
#X connect 32 0 30 0;
#X connect 32 0 33 0;
#X connect 37 0 46 0;
#X connect 38 0 37 1;
#X connect 40 0 43 0;
#X connect 41 0 40 1;
#X connect 43 0 27 0;
#X connect 44 0 27 0;
#X connect 45 0 40 0;
#X connect 46 0 44 0;
#X connect 46 1 45 0;
#X connect 47 0 19 1;
#X connect 48 0 57 0;
#X connect 49 0 48 1;
#X connect 51 0 54 0;
#X connect 52 0 51 1;
#X connect 54 0 47 0;
#X connect 55 0 47 0;
#X connect 56 0 51 0;
#X connect 57 0 55 0;
#X connect 57 1 56 0;
#X connect 58 0 37 0;
#X connect 58 0 90 0;
#X connect 58 0 91 0;
#X connect 59 0 48 0;
#X connect 59 0 87 0;
#X connect 59 0 88 0;
#X connect 60 0 10 0;
#X connect 60 0 76 0;
#X connect 61 0 75 0;
#X connect 64 0 18 0;
#X connect 65 0 19 0;
#X connect 67 0 5 1;
#X connect 69 0 0 1;
#X connect 70 0 71 0;
#X connect 70 0 78 0;
#X connect 70 0 82 0;
#X connect 71 0 72 0;
#X connect 72 0 73 0;
#X connect 73 0 31 0;
#X connect 74 0 31 0;
#X connect 75 0 24 0;
#X connect 76 0 21 0;
#X connect 77 0 85 1;
#X connect 78 0 79 0;
#X connect 79 0 80 0;
#X connect 80 0 77 0;
#X connect 81 0 86 1;
#X connect 82 0 83 0;
#X connect 83 0 84 0;
#X connect 84 0 81 0;
#X connect 85 0 14 0;
#X connect 86 0 20 0;
#X connect 87 0 49 0;
#X connect 88 0 89 0;
#X connect 89 0 52 0;
#X connect 90 0 38 0;
#X connect 91 0 92 0;
#X connect 92 0 41 0;
#X restore 517 671 pd value8;
#N canvas -8 0 958 966 value9 0;
#X obj 107 155 +~;
#X obj 107 176 osc~ 1;
#X obj 107 222 *~ 1;
#X obj 107 243 +~ 440;
#X floatatom 128 199 5 0 0 0 - - -;
#X obj 393 168 +~;
#X obj 393 189 osc~ 1;
#X obj 393 235 *~ 1;
#X obj 393 256 +~ 440;
#X floatatom 414 212 5 0 0 0 - - -;
#X obj 243 139 + 20;
#X obj 108 744 hip~ 10;
#X obj 108 765 hip~ 10;
#X obj 108 786 hip~ 10;
#X obj 392 734 hip~ 10;
#X obj 392 755 hip~ 10;
#X obj 392 776 hip~ 10;
#X obj 392 797 hip~ 10;
#X obj 107 556 *~;
#X obj 393 573 *~;
#X obj 108 723 hip~ 10;
#X floatatom 107 71 5 0 0 0 - - -;
#X obj 107 90 list-abs/list-round;
#X floatatom 107 111 5 0 0 0 - - -;
#X floatatom 393 81 5 0 0 0 - - -;
#X obj 393 102 list-abs/list-round;
#X floatatom 393 123 5 0 0 0 - - -;
#X obj 123 524 line~;
#X obj 189 893 freeverb~/freeverb~;
#X msg 189 839 wet \$1;
#X msg 237 839 dry \$1;
#X obj 192 784 hsl 128 15 0 1 0 0 empty empty empty -2 -8 0 10 -262144
-1 -1 0 1;
#N canvas 1 80 450 300 inv 0;
#X obj 154 69 inlet;
#X obj 154 179 outlet;
#X msg 154 124 1;
#X obj 154 97 t b f;
#X obj 154 151 -;
#X connect 0 0 3 0;
#X connect 2 0 4 0;
#X connect 3 0 2 0;
#X connect 3 1 4 1;
#X connect 4 0 1 0;
#X restore 237 812 pd inv;
#X floatatom 295 837 5 0 0 0 - - -;
#X text 180 768 dry;
#X text 305 767 wet;
#X floatatom 196 813 5 0 0 0 - - -;
#X obj 123 385 f;
#X obj 148 355 nbx 4 14 5 1000 1 0 empty empty attack 0 -8 0 10 -262144
-1 -1 5 256;
#X text 197 355 ms;
#X obj 170 476 f;
#X obj 217 473 nbx 4 14 10 10000 1 1 empty empty decay 0 -8 0 10 -262144
-1 -1 500 256;
#X text 264 472 ms;
#X msg 170 499 0 \$1;
#X msg 123 454 1 \$1;
#X obj 170 438 delay;
#X obj 123 408 t f f;
#X obj 407 542 line~;
#X obj 407 403 f;
#X obj 432 373 nbx 4 14 5 1000 1 0 empty empty attack 0 -8 0 10 -262144
-1 -1 5 256;
#X text 481 373 ms;
#X obj 454 494 f;
#X obj 501 491 nbx 4 14 10 10000 1 1 empty empty decay 0 -8 0 10 -262144
-1 -1 623 256;
#X text 548 490 ms;
#X msg 454 517 0 \$1;
#X msg 407 472 1 \$1;
#X obj 454 456 delay;
#X obj 407 426 t f f;
#X obj 123 287 bng 15 250 50 0 empty bang9 empty 17 7 0 10 -262144
-1 -1;
#X obj 407 305 bng 15 250 50 0 empty bang9 empty 17 7 0 10 -262144
-1 -1;
#X obj 108 31 inlet;
#X obj 394 41 inlet;
#X obj 190 921 outlet~;
#X obj 299 921 outlet~;
#N canvas 952 515 958 451 wavsel17 0;
#X obj 82 177 osc~;
#X obj 142 177 phasor~;
#X obj 202 155 phasor~;
#X obj 141 104 inlet~;
#X floatatom 289 114 5 0 0 0 - - -;
#X obj 97 280 tgl 15 0 empty empty empty 17 7 0 10 -262144 -1 -1 0
1;
#X obj 157 280 tgl 15 0 empty empty empty 17 7 0 10 -262144 -1 -1 0
1;
#X obj 218 280 tgl 15 0 empty empty empty 17 7 0 10 -262144 -1 -1 0
1;
#X msg 463 215 0;
#X msg 434 215 1;
#X msg 405 215 0;
#X msg 376 215 1;
#X msg 523 215 0;
#X msg 492 215 1;
#X obj 376 84 random 3;
#X floatatom 376 116 5 0 0 0 - - -;
#X obj 376 145 select 0 1 2;
#X obj 82 308 *~;
#X obj 142 308 *~;
#X obj 203 308 *~;
#X obj 141 361 outlet~;
#X obj 202 176 expr~ $v1 > $v2;
#X obj 289 138 / 100;
#X obj 289 87 random 100;
#X obj 376 53 r bang9;
#X connect 0 0 17 0;
#X connect 1 0 18 0;
#X connect 2 0 21 0;
#X connect 3 0 0 0;
#X connect 3 0 1 0;
#X connect 3 0 2 0;
#X connect 4 0 22 0;
#X connect 5 0 17 1;
#X connect 6 0 18 1;
#X connect 7 0 19 1;
#X connect 8 0 6 0;
#X connect 9 0 6 0;
#X connect 10 0 5 0;
#X connect 11 0 5 0;
#X connect 12 0 7 0;
#X connect 13 0 7 0;
#X connect 14 0 15 0;
#X connect 15 0 16 0;
#X connect 16 0 8 0;
#X connect 16 0 11 0;
#X connect 16 0 12 0;
#X connect 16 1 9 0;
#X connect 16 1 10 0;
#X connect 16 1 12 0;
#X connect 16 2 13 0;
#X connect 16 2 8 0;
#X connect 16 2 10 0;
#X connect 17 0 20 0;
#X connect 18 0 20 0;
#X connect 19 0 20 0;
#X connect 21 0 19 0;
#X connect 22 0 21 1;
#X connect 23 0 4 0;
#X connect 24 0 14 0;
#X connect 24 0 23 0;
#X restore 108 264 pd wavsel17;
#N canvas 0 50 640 456 wavsel18 0;
#X obj 82 177 osc~;
#X obj 142 177 phasor~;
#X obj 202 155 phasor~;
#X obj 141 104 inlet~;
#X floatatom 289 114 5 0 0 0 - - -;
#X obj 97 280 tgl 15 0 empty empty empty 17 7 0 10 -262144 -1 -1 0
1;
#X obj 157 280 tgl 15 0 empty empty empty 17 7 0 10 -262144 -1 -1 0
1;
#X obj 218 280 tgl 15 0 empty empty empty 17 7 0 10 -262144 -1 -1 0
1;
#X msg 463 215 0;
#X msg 434 215 1;
#X msg 405 215 0;
#X msg 376 215 1;
#X msg 523 215 0;
#X msg 492 215 1;
#X obj 376 84 random 3;
#X floatatom 376 116 5 0 0 0 - - -;
#X obj 376 145 select 0 1 2;
#X obj 82 308 *~;
#X obj 142 308 *~;
#X obj 203 308 *~;
#X obj 141 361 outlet~;
#X obj 202 176 expr~ $v1 > $v2;
#X obj 289 138 / 100;
#X obj 289 87 random 100;
#X obj 376 53 r bang9;
#X connect 0 0 17 0;
#X connect 1 0 18 0;
#X connect 2 0 21 0;
#X connect 3 0 0 0;
#X connect 3 0 1 0;
#X connect 3 0 2 0;
#X connect 4 0 22 0;
#X connect 5 0 17 1;
#X connect 6 0 18 1;
#X connect 7 0 19 1;
#X connect 8 0 6 0;
#X connect 9 0 6 0;
#X connect 10 0 5 0;
#X connect 11 0 5 0;
#X connect 12 0 7 0;
#X connect 13 0 7 0;
#X connect 14 0 15 0;
#X connect 15 0 16 0;
#X connect 16 0 8 0;
#X connect 16 0 11 0;
#X connect 16 0 12 0;
#X connect 16 1 9 0;
#X connect 16 1 10 0;
#X connect 16 1 12 0;
#X connect 16 2 13 0;
#X connect 16 2 8 0;
#X connect 16 2 10 0;
#X connect 17 0 20 0;
#X connect 18 0 20 0;
#X connect 19 0 20 0;
#X connect 21 0 19 0;
#X connect 22 0 21 1;
#X connect 23 0 4 0;
#X connect 24 0 14 0;
#X connect 24 0 23 0;
#X restore 394 278 pd wavsel18;
#X obj 116 588 send~ q;
#X obj 409 144 receive~ q;
#X obj 407 601 send~ r;
#X obj 123 132 receive~ r;
#X obj 250 682 bng 15 250 50 0 empty bang9 empty 17 7 0 10 -262144
-1 -1;
#X obj 250 709 random 100;
#X obj 250 730 * 0.01;
#X floatatom 250 751 5 0 0 0 - - -;
#X obj 189 709 loadbang;
#X obj 108 52 * 4;
#X obj 394 62 * 4;
#X obj 411 689 hsl 70 15 0.1 0.5 0 0 empty empty empty -2 -8 0 10 -262144
-1 -1 0 1;
#X obj 408 624 random 50;
#X obj 408 645 * 0.01;
#X floatatom 408 666 5 0 0 0 - - -;
#X obj 125 676 hsl 70 15 0.1 0.5 0 0 empty empty empty -2 -8 0 10 -262144
-1 -1 0 1;
#X obj 122 611 random 50;
#X obj 122 632 * 0.01;
#X floatatom 122 653 5 0 0 0 - - -;
#X obj 107 701 *~;
#X obj 393 713 *~;
#X obj 432 334 random 10;
#X obj 501 318 random 1000;
#X obj 501 339 clip 500 1000;
#X obj 148 316 random 10;
#X obj 217 300 random 1000;
#X obj 217 321 clip 500 1000;
#X connect 0 0 1 0;
#X connect 1 0 2 0;
#X connect 2 0 3 0;
#X connect 3 0 64 0;
#X connect 4 0 2 1;
#X connect 5 0 6 0;
#X connect 6 0 7 0;
#X connect 7 0 8 0;
#X connect 8 0 65 0;
#X connect 9 0 7 1;
#X connect 10 0 4 0;
#X connect 10 0 9 0;
#X connect 11 0 12 0;
#X connect 12 0 13 0;
#X connect 13 0 28 0;
#X connect 13 0 28 1;
#X connect 14 0 15 0;
#X connect 15 0 16 0;
#X connect 16 0 17 0;
#X connect 17 0 28 1;
#X connect 17 0 28 0;
#X connect 18 0 66 0;
#X connect 18 0 85 0;
#X connect 19 0 68 0;
#X connect 19 0 86 0;
#X connect 20 0 11 0;
#X connect 21 0 22 0;
#X connect 22 0 23 0;
#X connect 23 0 0 0;
#X connect 24 0 25 0;
#X connect 25 0 26 0;
#X connect 26 0 5 0;
#X connect 27 0 18 1;
#X connect 28 0 62 0;
#X connect 28 1 63 0;
#X connect 29 0 28 0;
#X connect 30 0 28 0;
#X connect 31 0 29 0;
#X connect 31 0 32 0;
#X connect 31 0 36 0;
#X connect 32 0 30 0;
#X connect 32 0 33 0;
#X connect 37 0 46 0;
#X connect 38 0 37 1;
#X connect 40 0 43 0;
#X connect 41 0 40 1;
#X connect 43 0 27 0;
#X connect 44 0 27 0;
#X connect 45 0 40 0;
#X connect 46 0 44 0;
#X connect 46 1 45 0;
#X connect 47 0 19 1;
#X connect 48 0 57 0;
#X connect 49 0 48 1;
#X connect 51 0 54 0;
#X connect 52 0 51 1;
#X connect 54 0 47 0;
#X connect 55 0 47 0;
#X connect 56 0 51 0;
#X connect 57 0 55 0;
#X connect 57 1 56 0;
#X connect 58 0 37 0;
#X connect 58 0 90 0;
#X connect 58 0 91 0;
#X connect 59 0 48 0;
#X connect 59 0 87 0;
#X connect 59 0 88 0;
#X connect 60 0 10 0;
#X connect 60 0 75 0;
#X connect 61 0 76 0;
#X connect 64 0 18 0;
#X connect 65 0 19 0;
#X connect 67 0 5 1;
#X connect 69 0 0 1;
#X connect 70 0 71 0;
#X connect 70 0 82 0;
#X connect 70 0 78 0;
#X connect 71 0 72 0;
#X connect 72 0 73 0;
#X connect 73 0 31 0;
#X connect 74 0 31 0;
#X connect 75 0 21 0;
#X connect 76 0 24 0;
#X connect 77 0 86 1;
#X connect 78 0 79 0;
#X connect 79 0 80 0;
#X connect 80 0 77 0;
#X connect 81 0 85 1;
#X connect 82 0 83 0;
#X connect 83 0 84 0;
#X connect 84 0 81 0;
#X connect 85 0 20 0;
#X connect 86 0 14 0;
#X connect 87 0 49 0;
#X connect 88 0 89 0;
#X connect 89 0 52 0;
#X connect 90 0 38 0;
#X connect 91 0 92 0;
#X connect 92 0 41 0;
#X restore 617 672 pd value9;
#N canvas 202 7 622 966 value10 0;
#X obj 107 172 +~;
#X obj 107 195 osc~ 1;
#X obj 107 241 *~ 1;
#X obj 107 262 +~ 440;
#X floatatom 128 218 5 0 0 0 - - -;
#X obj 393 170 +~;
#X obj 393 191 osc~ 1;
#X obj 393 235 *~ 1;
#X obj 393 256 +~ 440;
#X floatatom 414 212 5 0 0 0 - - -;
#X obj 243 83 + 20;
#X obj 108 771 hip~ 10;
#X obj 108 792 hip~ 10;
#X obj 108 813 hip~ 10;
#X obj 392 730 hip~ 10;
#X obj 392 751 hip~ 10;
#X obj 392 772 hip~ 10;
#X obj 392 793 hip~ 10;
#X obj 107 580 *~;
#X obj 393 568 *~;
#X obj 108 750 hip~ 10;
#X floatatom 107 89 5 0 0 0 - - -;
#X obj 107 109 list-abs/list-round;
#X floatatom 107 130 5 0 0 0 - - -;
#X floatatom 393 85 5 0 0 0 - - -;
#X obj 393 105 list-abs/list-round;
#X floatatom 393 126 5 0 0 0 - - -;
#X obj 123 548 line~;
#X obj 189 907 freeverb~/freeverb~;
#X msg 189 843 wet \$1;
#X msg 237 843 dry \$1;
#X obj 192 788 hsl 128 15 0 1 0 0 empty empty empty -2 -8 0 10 -262144
-1 -1 0 1;
#N canvas 1 80 450 300 inv 0;
#X obj 154 69 inlet;
#X obj 154 179 outlet;
#X msg 154 124 1;
#X obj 154 97 t b f;
#X obj 154 151 -;
#X connect 0 0 3 0;
#X connect 2 0 4 0;
#X connect 3 0 2 0;
#X connect 3 1 4 1;
#X connect 4 0 1 0;
#X restore 237 816 pd inv;
#X floatatom 295 841 5 0 0 0 - - -;
#X text 180 772 dry;
#X text 305 771 wet;
#X floatatom 196 817 5 0 0 0 - - -;
#X obj 123 409 f;
#X obj 148 379 nbx 4 14 5 1000 1 0 empty empty attack 0 -8 0 10 -262144
-1 -1 5 256;
#X text 197 379 ms;
#X obj 170 500 f;
#X obj 217 497 nbx 4 14 10 10000 1 1 empty empty decay 0 -8 0 10 -262144
-1 -1 732 256;
#X text 264 496 ms;
#X msg 170 523 0 \$1;
#X msg 123 478 1 \$1;
#X obj 170 462 delay;
#X obj 123 432 t f f;
#X obj 407 537 line~;
#X obj 407 398 f;
#X obj 432 368 nbx 4 14 5 1000 1 0 empty empty attack 0 -8 0 10 -262144
-1 -1 5 256;
#X text 481 368 ms;
#X obj 454 489 f;
#X obj 501 486 nbx 4 14 10 10000 1 1 empty empty decay 0 -8 0 10 -262144
-1 -1 764 256;
#X text 548 485 ms;
#X msg 454 512 0 \$1;
#X msg 407 467 1 \$1;
#X obj 454 451 delay;
#X obj 407 421 t f f;
#X obj 123 306 bng 15 250 50 0 empty bang10 empty 17 7 0 10 -262144
-1 -1;
#X obj 407 301 bng 15 250 50 0 empty bang10 empty 17 7 0 10 -262144
-1 -1;
#X obj 108 47 inlet;
#X obj 394 44 inlet;
#X obj 190 935 outlet~;
#X obj 299 935 outlet~;
#X obj 126 612 send~ s;
#X obj 409 147 receive~ s;
#X obj 410 597 send~ t;
#X obj 123 150 receive~ t;
#N canvas 952 515 958 451 wavsel19 0;
#X obj 82 177 osc~;
#X obj 142 177 phasor~;
#X obj 202 155 phasor~;
#X obj 141 104 inlet~;
#X floatatom 289 114 5 0 0 0 - - -;
#X obj 97 280 tgl 15 0 empty empty empty 17 7 0 10 -262144 -1 -1 0
1;
#X obj 157 280 tgl 15 0 empty empty empty 17 7 0 10 -262144 -1 -1 0
1;
#X obj 218 280 tgl 15 0 empty empty empty 17 7 0 10 -262144 -1 -1 0
1;
#X msg 463 215 0;
#X msg 434 215 1;
#X msg 405 215 0;
#X msg 376 215 1;
#X msg 523 215 0;
#X msg 492 215 1;
#X obj 376 84 random 3;
#X floatatom 376 116 5 0 0 0 - - -;
#X obj 376 145 select 0 1 2;
#X obj 82 308 *~;
#X obj 142 308 *~;
#X obj 203 308 *~;
#X obj 141 361 outlet~;
#X obj 202 176 expr~ $v1 > $v2;
#X obj 289 138 / 100;
#X obj 289 87 random 100;
#X obj 376 53 r bang10;
#X connect 0 0 17 0;
#X connect 1 0 18 0;
#X connect 2 0 21 0;
#X connect 3 0 0 0;
#X connect 3 0 1 0;
#X connect 3 0 2 0;
#X connect 4 0 22 0;
#X connect 5 0 17 1;
#X connect 6 0 18 1;
#X connect 7 0 19 1;
#X connect 8 0 6 0;
#X connect 9 0 6 0;
#X connect 10 0 5 0;
#X connect 11 0 5 0;
#X connect 12 0 7 0;
#X connect 13 0 7 0;
#X connect 14 0 15 0;
#X connect 15 0 16 0;
#X connect 16 0 8 0;
#X connect 16 0 11 0;
#X connect 16 0 12 0;
#X connect 16 1 9 0;
#X connect 16 1 10 0;
#X connect 16 1 12 0;
#X connect 16 2 13 0;
#X connect 16 2 8 0;
#X connect 16 2 10 0;
#X connect 17 0 20 0;
#X connect 18 0 20 0;
#X connect 19 0 20 0;
#X connect 21 0 19 0;
#X connect 22 0 21 1;
#X connect 23 0 4 0;
#X connect 24 0 14 0;
#X connect 24 0 23 0;
#X restore 108 283 pd wavsel19;
#N canvas 0 50 640 456 wavsel20 0;
#X obj 82 177 osc~;
#X obj 142 177 phasor~;
#X obj 202 155 phasor~;
#X obj 141 104 inlet~;
#X floatatom 289 114 5 0 0 0 - - -;
#X obj 97 280 tgl 15 0 empty empty empty 17 7 0 10 -262144 -1 -1 0
1;
#X obj 157 280 tgl 15 0 empty empty empty 17 7 0 10 -262144 -1 -1 0
1;
#X obj 218 280 tgl 15 0 empty empty empty 17 7 0 10 -262144 -1 -1 0
1;
#X msg 463 215 0;
#X msg 434 215 1;
#X msg 405 215 0;
#X msg 376 215 1;
#X msg 523 215 0;
#X msg 492 215 1;
#X obj 376 84 random 3;
#X floatatom 376 116 5 0 0 0 - - -;
#X obj 376 145 select 0 1 2;
#X obj 82 308 *~;
#X obj 142 308 *~;
#X obj 203 308 *~;
#X obj 141 361 outlet~;
#X obj 202 176 expr~ $v1 > $v2;
#X obj 289 138 / 100;
#X obj 289 87 random 100;
#X obj 376 53 r bang10;
#X connect 0 0 17 0;
#X connect 1 0 18 0;
#X connect 2 0 21 0;
#X connect 3 0 0 0;
#X connect 3 0 1 0;
#X connect 3 0 2 0;
#X connect 4 0 22 0;
#X connect 5 0 17 1;
#X connect 6 0 18 1;
#X connect 7 0 19 1;
#X connect 8 0 6 0;
#X connect 9 0 6 0;
#X connect 10 0 5 0;
#X connect 11 0 5 0;
#X connect 12 0 7 0;
#X connect 13 0 7 0;
#X connect 14 0 15 0;
#X connect 15 0 16 0;
#X connect 16 0 8 0;
#X connect 16 0 11 0;
#X connect 16 0 12 0;
#X connect 16 1 9 0;
#X connect 16 1 10 0;
#X connect 16 1 12 0;
#X connect 16 2 13 0;
#X connect 16 2 8 0;
#X connect 16 2 10 0;
#X connect 17 0 20 0;
#X connect 18 0 20 0;
#X connect 19 0 20 0;
#X connect 21 0 19 0;
#X connect 22 0 21 1;
#X connect 23 0 4 0;
#X connect 24 0 14 0;
#X connect 24 0 23 0;
#X restore 394 277 pd wavsel20;
#X obj 249 666 bng 15 250 50 0 empty bang10 empty 17 7 0 10 -262144
-1 -1;
#X obj 249 707 random 100;
#X obj 249 728 * 0.01;
#X floatatom 249 749 5 0 0 0 - - -;
#X obj 189 723 loadbang;
#X obj 108 70 * 4;
#X obj 394 66 * 4;
#X obj 107 729 *~;
#X obj 393 709 *~;
#X obj 411 683 hsl 70 15 0.1 0.5 0 0 empty empty empty -2 -8 0 10 -262144
-1 -1 0 1;
#X obj 408 618 random 50;
#X obj 408 639 * 0.01;
#X floatatom 408 660 5 0 0 0 - - -;
#X obj 125 702 hsl 70 15 0.1 0.5 0 0 empty empty empty -2 -8 0 10 -262144
-1 -1 0 1;
#X obj 122 637 random 50;
#X obj 122 658 * 0.01;
#X floatatom 122 679 5 0 0 0 - - -;
#X obj 432 330 random 10;
#X obj 501 314 random 1000;
#X obj 501 335 clip 500 1000;
#X obj 148 335 random 10;
#X obj 217 319 random 1000;
#X obj 217 340 clip 500 1000;
#X connect 0 0 1 0;
#X connect 1 0 2 0;
#X connect 2 0 3 0;
#X connect 3 0 68 0;
#X connect 4 0 2 1;
#X connect 5 0 6 0;
#X connect 6 0 7 0;
#X connect 7 0 8 0;
#X connect 8 0 69 0;
#X connect 9 0 7 1;
#X connect 10 0 4 0;
#X connect 10 0 9 0;
#X connect 11 0 12 0;
#X connect 12 0 13 0;
#X connect 13 0 28 0;
#X connect 13 0 28 1;
#X connect 14 0 15 0;
#X connect 15 0 16 0;
#X connect 16 0 17 0;
#X connect 17 0 28 1;
#X connect 17 0 28 0;
#X connect 18 0 64 0;
#X connect 18 0 77 0;
#X connect 19 0 66 0;
#X connect 19 0 78 0;
#X connect 20 0 11 0;
#X connect 21 0 22 0;
#X connect 22 0 23 0;
#X connect 23 0 0 0;
#X connect 24 0 25 0;
#X connect 25 0 26 0;
#X connect 26 0 5 0;
#X connect 27 0 18 1;
#X connect 28 0 62 0;
#X connect 28 1 63 0;
#X connect 29 0 28 0;
#X connect 30 0 28 0;
#X connect 31 0 29 0;
#X connect 31 0 32 0;
#X connect 31 0 36 0;
#X connect 32 0 30 0;
#X connect 32 0 33 0;
#X connect 37 0 46 0;
#X connect 38 0 37 1;
#X connect 40 0 43 0;
#X connect 41 0 40 1;
#X connect 43 0 27 0;
#X connect 44 0 27 0;
#X connect 45 0 40 0;
#X connect 46 0 44 0;
#X connect 46 1 45 0;
#X connect 47 0 19 1;
#X connect 48 0 57 0;
#X connect 49 0 48 1;
#X connect 51 0 54 0;
#X connect 52 0 51 1;
#X connect 54 0 47 0;
#X connect 55 0 47 0;
#X connect 56 0 51 0;
#X connect 57 0 55 0;
#X connect 57 1 56 0;
#X connect 58 0 37 0;
#X connect 58 0 90 0;
#X connect 58 0 91 0;
#X connect 59 0 48 0;
#X connect 59 0 87 0;
#X connect 59 0 88 0;
#X connect 60 0 10 0;
#X connect 60 0 75 0;
#X connect 61 0 76 0;
#X connect 65 0 5 1;
#X connect 67 0 0 1;
#X connect 68 0 18 0;
#X connect 69 0 19 0;
#X connect 70 0 71 0;
#X connect 70 0 84 0;
#X connect 70 0 80 0;
#X connect 71 0 72 0;
#X connect 72 0 73 0;
#X connect 73 0 31 0;
#X connect 74 0 31 0;
#X connect 75 0 21 0;
#X connect 76 0 24 0;
#X connect 77 0 20 0;
#X connect 78 0 14 0;
#X connect 79 0 78 1;
#X connect 80 0 81 0;
#X connect 81 0 82 0;
#X connect 82 0 79 0;
#X connect 83 0 77 1;
#X connect 84 0 85 0;
#X connect 85 0 86 0;
#X connect 86 0 83 0;
#X connect 87 0 49 0;
#X connect 88 0 89 0;
#X connect 89 0 52 0;
#X connect 90 0 38 0;
#X connect 91 0 92 0;
#X connect 92 0 41 0;
#X restore 728 666 pd value10;
#N canvas -8 0 958 966 value11 0;
#X obj 107 141 +~;
#X obj 107 166 osc~ 1;
#X obj 107 213 *~ 1;
#X obj 107 234 +~ 440;
#X floatatom 128 190 5 0 0 0 - - -;
#X obj 393 144 +~;
#X obj 393 165 osc~ 1;
#X obj 393 212 *~ 1;
#X obj 393 233 +~ 440;
#X floatatom 414 189 5 0 0 0 - - -;
#X obj 243 113 + 20;
#X obj 108 787 hip~ 10;
#X obj 108 808 hip~ 10;
#X obj 108 829 hip~ 10;
#X obj 392 752 hip~ 10;
#X obj 392 773 hip~ 10;
#X obj 392 794 hip~ 10;
#X obj 392 815 hip~ 10;
#X obj 107 580 *~;
#X obj 393 568 *~;
#X obj 108 766 hip~ 10;
#X floatatom 107 54 5 0 0 0 - - -;
#X obj 107 75 list-abs/list-round;
#X floatatom 107 96 5 0 0 0 - - -;
#X floatatom 393 55 5 0 0 0 - - -;
#X obj 393 76 list-abs/list-round;
#X floatatom 393 97 5 0 0 0 - - -;
#X obj 123 548 line~;
#X obj 189 903 freeverb~/freeverb~;
#X msg 189 860 wet \$1;
#X msg 237 860 dry \$1;
#X obj 192 805 hsl 128 15 0 1 0 0 empty empty empty -2 -8 0 10 -262144
-1 -1 0 1;
#N canvas 1 80 450 300 inv 0;
#X obj 154 69 inlet;
#X obj 154 179 outlet;
#X msg 154 124 1;
#X obj 154 97 t b f;
#X obj 154 151 -;
#X connect 0 0 3 0;
#X connect 2 0 4 0;
#X connect 3 0 2 0;
#X connect 3 1 4 1;
#X connect 4 0 1 0;
#X restore 237 833 pd inv;
#X floatatom 295 858 5 0 0 0 - - -;
#X text 180 789 dry;
#X text 305 788 wet;
#X floatatom 196 834 5 0 0 0 - - -;
#X obj 123 409 f;
#X obj 148 379 nbx 4 14 5 1000 1 0 empty empty attack 0 -8 0 10 -262144
-1 -1 5 256;
#X text 197 379 ms;
#X obj 170 500 f;
#X obj 217 497 nbx 4 14 10 10000 1 1 empty empty decay 0 -8 0 10 -262144
-1 -1 500 256;
#X text 264 496 ms;
#X msg 170 523 0 \$1;
#X msg 123 478 1 \$1;
#X obj 170 462 delay;
#X obj 123 432 t f f;
#X obj 407 537 line~;
#X obj 407 398 f;
#X obj 432 368 nbx 4 14 5 1000 1 0 empty empty attack 0 -8 0 10 -262144
-1 -1 5 256;
#X text 481 368 ms;
#X obj 454 489 f;
#X obj 501 486 nbx 4 14 10 10000 1 1 empty empty decay 0 -8 0 10 -262144
-1 -1 500 256;
#X text 548 485 ms;
#X msg 454 512 0 \$1;
#X msg 407 467 1 \$1;
#X obj 454 451 delay;
#X obj 407 421 t f f;
#X obj 123 283 bng 15 250 50 0 empty bang11 empty 17 7 0 10 -262144
-1 -1;
#X obj 407 286 bng 15 250 50 0 empty bang11 empty 17 7 0 10 -262144
-1 -1;
#X obj 108 13 inlet;
#X obj 394 15 inlet;
#X obj 190 941 outlet~;
#X obj 299 941 outlet~;
#X obj 116 612 send~ u;
#X obj 409 120 receive~ u;
#X obj 405 606 send~ v;
#X obj 123 118 receive~ v;
#N canvas 952 515 958 451 wavsel21 0;
#X obj 82 177 osc~;
#X obj 142 177 phasor~;
#X obj 202 155 phasor~;
#X obj 141 104 inlet~;
#X floatatom 289 114 5 0 0 0 - - -;
#X obj 97 280 tgl 15 0 empty empty empty 17 7 0 10 -262144 -1 -1 0
1;
#X obj 157 280 tgl 15 0 empty empty empty 17 7 0 10 -262144 -1 -1 0
1;
#X obj 218 280 tgl 15 0 empty empty empty 17 7 0 10 -262144 -1 -1 0
1;
#X msg 463 215 0;
#X msg 434 215 1;
#X msg 405 215 0;
#X msg 376 215 1;
#X msg 523 215 0;
#X msg 492 215 1;
#X obj 376 84 random 3;
#X floatatom 376 116 5 0 0 0 - - -;
#X obj 376 145 select 0 1 2;
#X obj 82 308 *~;
#X obj 142 308 *~;
#X obj 203 308 *~;
#X obj 141 361 outlet~;
#X obj 202 176 expr~ $v1 > $v2;
#X obj 289 138 / 100;
#X obj 289 87 random 100;
#X obj 376 53 r bang11;
#X connect 0 0 17 0;
#X connect 1 0 18 0;
#X connect 2 0 21 0;
#X connect 3 0 0 0;
#X connect 3 0 1 0;
#X connect 3 0 2 0;
#X connect 4 0 22 0;
#X connect 5 0 17 1;
#X connect 6 0 18 1;
#X connect 7 0 19 1;
#X connect 8 0 6 0;
#X connect 9 0 6 0;
#X connect 10 0 5 0;
#X connect 11 0 5 0;
#X connect 12 0 7 0;
#X connect 13 0 7 0;
#X connect 14 0 15 0;
#X connect 15 0 16 0;
#X connect 16 0 8 0;
#X connect 16 0 11 0;
#X connect 16 0 12 0;
#X connect 16 1 9 0;
#X connect 16 1 10 0;
#X connect 16 1 12 0;
#X connect 16 2 13 0;
#X connect 16 2 8 0;
#X connect 16 2 10 0;
#X connect 17 0 20 0;
#X connect 18 0 20 0;
#X connect 19 0 20 0;
#X connect 21 0 19 0;
#X connect 22 0 21 1;
#X connect 23 0 4 0;
#X connect 24 0 14 0;
#X connect 24 0 23 0;
#X restore 108 255 pd wavsel21;
#N canvas 0 50 640 456 wavsel22 0;
#X obj 82 177 osc~;
#X obj 142 177 phasor~;
#X obj 202 155 phasor~;
#X obj 141 104 inlet~;
#X floatatom 289 114 5 0 0 0 - - -;
#X obj 97 280 tgl 15 0 empty empty empty 17 7 0 10 -262144 -1 -1 0
1;
#X obj 157 280 tgl 15 0 empty empty empty 17 7 0 10 -262144 -1 -1 0
1;
#X obj 218 280 tgl 15 0 empty empty empty 17 7 0 10 -262144 -1 -1 0
1;
#X msg 463 215 0;
#X msg 434 215 1;
#X msg 405 215 0;
#X msg 376 215 1;
#X msg 523 215 0;
#X msg 492 215 1;
#X obj 376 84 random 3;
#X floatatom 376 116 5 0 0 0 - - -;
#X obj 376 145 select 0 1 2;
#X obj 82 308 *~;
#X obj 142 308 *~;
#X obj 203 308 *~;
#X obj 141 361 outlet~;
#X obj 202 176 expr~ $v1 > $v2;
#X obj 289 138 / 100;
#X obj 289 87 random 100;
#X obj 376 53 r bang11;
#X connect 0 0 17 0;
#X connect 1 0 18 0;
#X connect 2 0 21 0;
#X connect 3 0 0 0;
#X connect 3 0 1 0;
#X connect 3 0 2 0;
#X connect 4 0 22 0;
#X connect 5 0 17 1;
#X connect 6 0 18 1;
#X connect 7 0 19 1;
#X connect 8 0 6 0;
#X connect 9 0 6 0;
#X connect 10 0 5 0;
#X connect 11 0 5 0;
#X connect 12 0 7 0;
#X connect 13 0 7 0;
#X connect 14 0 15 0;
#X connect 15 0 16 0;
#X connect 16 0 8 0;
#X connect 16 0 11 0;
#X connect 16 0 12 0;
#X connect 16 1 9 0;
#X connect 16 1 10 0;
#X connect 16 1 12 0;
#X connect 16 2 13 0;
#X connect 16 2 8 0;
#X connect 16 2 10 0;
#X connect 17 0 20 0;
#X connect 18 0 20 0;
#X connect 19 0 20 0;
#X connect 21 0 19 0;
#X connect 22 0 21 1;
#X connect 23 0 4 0;
#X connect 24 0 14 0;
#X connect 24 0 23 0;
#X restore 394 256 pd wavsel22;
#X obj 259 666 bng 15 250 50 0 empty bang11 empty 17 7 0 10 -262144
-1 -1;
#X obj 259 696 random 100;
#X obj 259 717 * 0.01;
#X floatatom 259 738 5 0 0 0 - - -;
#X obj 189 743 loadbang;
#X obj 108 35 * 4;
#X obj 394 36 * 4;
#X obj 107 741 *~;
#X obj 393 725 *~;
#X obj 411 699 hsl 70 15 0.1 0.5 0 0 empty empty empty -2 -8 0 10 -262144
-1 -1 0 1;
#X obj 408 634 random 50;
#X obj 408 655 * 0.01;
#X floatatom 408 676 5 0 0 0 - - -;
#X obj 125 706 hsl 70 15 0.1 0.5 0 0 empty empty empty -2 -8 0 10 -262144
-1 -1 0 1;
#X obj 122 641 random 50;
#X obj 122 662 * 0.01;
#X floatatom 122 683 5 0 0 0 - - -;
#X obj 432 315 random 10;
#X obj 501 299 random 1000;
#X obj 501 320 clip 500 1000;
#X obj 148 312 random 10;
#X obj 217 296 random 1000;
#X obj 217 317 clip 500 1000;
#X connect 0 0 1 0;
#X connect 1 0 2 0;
#X connect 2 0 3 0;
#X connect 3 0 68 0;
#X connect 4 0 2 1;
#X connect 5 0 6 0;
#X connect 6 0 7 0;
#X connect 7 0 8 0;
#X connect 8 0 69 0;
#X connect 9 0 7 1;
#X connect 10 0 4 0;
#X connect 10 0 9 0;
#X connect 11 0 12 0;
#X connect 12 0 13 0;
#X connect 13 0 28 0;
#X connect 13 0 28 1;
#X connect 14 0 15 0;
#X connect 15 0 16 0;
#X connect 16 0 17 0;
#X connect 17 0 28 1;
#X connect 17 0 28 0;
#X connect 18 0 64 0;
#X connect 18 0 77 0;
#X connect 19 0 66 0;
#X connect 19 0 78 0;
#X connect 20 0 11 0;
#X connect 21 0 22 0;
#X connect 22 0 23 0;
#X connect 23 0 0 0;
#X connect 24 0 25 0;
#X connect 25 0 26 0;
#X connect 26 0 5 0;
#X connect 27 0 18 1;
#X connect 28 0 62 0;
#X connect 28 1 63 0;
#X connect 29 0 28 0;
#X connect 30 0 28 0;
#X connect 31 0 29 0;
#X connect 31 0 32 0;
#X connect 31 0 36 0;
#X connect 32 0 30 0;
#X connect 32 0 33 0;
#X connect 37 0 46 0;
#X connect 38 0 37 1;
#X connect 40 0 43 0;
#X connect 41 0 40 1;
#X connect 43 0 27 0;
#X connect 44 0 27 0;
#X connect 45 0 40 0;
#X connect 46 0 44 0;
#X connect 46 1 45 0;
#X connect 47 0 19 1;
#X connect 48 0 57 0;
#X connect 49 0 48 1;
#X connect 51 0 54 0;
#X connect 52 0 51 1;
#X connect 54 0 47 0;
#X connect 55 0 47 0;
#X connect 56 0 51 0;
#X connect 57 0 55 0;
#X connect 57 1 56 0;
#X connect 58 0 37 0;
#X connect 58 0 90 0;
#X connect 58 0 91 0;
#X connect 59 0 48 0;
#X connect 59 0 87 0;
#X connect 59 0 88 0;
#X connect 60 0 10 0;
#X connect 60 0 75 0;
#X connect 61 0 76 0;
#X connect 65 0 5 1;
#X connect 67 0 0 1;
#X connect 68 0 18 0;
#X connect 69 0 19 0;
#X connect 70 0 71 0;
#X connect 70 0 84 0;
#X connect 70 0 80 0;
#X connect 71 0 72 0;
#X connect 72 0 73 0;
#X connect 73 0 31 0;
#X connect 74 0 31 0;
#X connect 75 0 21 0;
#X connect 76 0 24 0;
#X connect 77 0 20 0;
#X connect 78 0 14 0;
#X connect 79 0 78 1;
#X connect 80 0 81 0;
#X connect 81 0 82 0;
#X connect 82 0 79 0;
#X connect 83 0 77 1;
#X connect 84 0 85 0;
#X connect 85 0 86 0;
#X connect 86 0 83 0;
#X connect 87 0 49 0;
#X connect 88 0 89 0;
#X connect 89 0 52 0;
#X connect 90 0 38 0;
#X connect 91 0 92 0;
#X connect 92 0 41 0;
#X restore 843 666 pd value11;
#X obj -9 643 bng 15 250 50 0 bang3 empty empty 17 7 0 10 -262144 -1
-1;
#X obj 87 579 pipe 400;
#X obj 105 642 bng 15 250 50 0 bang4 empty empty 17 7 0 10 -262144
-1 -1;
#X obj 212 636 bng 15 250 50 0 bang5 empty empty 17 7 0 10 -262144
-1 -1;
#X obj 324 638 bng 15 250 50 0 bang6 empty empty 17 7 0 10 -262144
-1 -1;
#X obj 539 638 bng 15 250 50 0 bang8 empty empty 17 7 0 10 -262144
-1 -1;
#X obj 433 640 bng 15 250 50 0 bang7 empty empty 17 7 0 10 -262144
-1 -1;
#X obj 638 633 bng 15 250 50 0 bang9 empty empty 17 7 0 10 -262144
-1 -1;
#X obj 744 636 bng 15 250 50 0 bang10 empty empty 17 7 0 10 -262144
-1 -1;
#X obj 860 640 bng 15 250 50 0 bang11 empty empty 17 7 0 10 -262144
-1 -1;
#X obj 193 581 pipe 500;
#X obj 300 582 pipe 600;
#X obj 408 583 pipe 700;
#X obj 517 580 pipe 800;
#X obj 617 578 pipe 900;
#X obj 728 586 pipe 1000;
#X obj 843 589 pipe 1100;
#X obj 299 770 dac~;
#X obj -202 633 + 50;
#X obj -89 637 + 50;
#X obj 23 637 + 50;
#X obj 138 637 + 50;
#X obj 244 641 + 50;
#X obj 351 641 + 50;
#X obj 459 641 + 50;
#X obj 568 647 + 50;
#X obj 215 421 textfile;
#X obj 215 288 bng 15 250 50 0 empty empty empty 0 -6 0 8 -262144 -1
-1;
#X msg 242 353 rewind;
#X msg 289 269 stop;
#X obj 215 387 metro;
#X obj 25 157 hsl 100 30 1000 100 0 0 empty empty empty -2 -8 0 10
-262144 -1 -1 0 1;
#X obj 22 -31 loadbang;
#X msg -312 319 read example3.txt cr;
#X msg -456 320 read example2.txt cr;
#X msg -174 319 read example4.txt cr;
#X obj -456 284 bng 15 250 50 0 empty empty empty 17 7 0 10 -262144
-1 -1;
#X obj -312 284 bng 15 250 50 0 empty empty empty 17 7 0 10 -262144
-1 -1;
#X obj -174 284 bng 15 250 50 0 empty empty empty 17 7 0 10 -262144
-1 -1;
#X obj 132 27 hradio 40 1 0 3 empty empty empty 0 -8 0 10 -262144 -1
-1 0;
#X obj 215 243 pipe 100;
#X obj -334 240 sel 0 1 2;
#X msg 102 430 clear;
#X obj -334 202 pipe 50;
#X obj -312 407 s txtfl;
#X obj 136 392 r txtfl;
#X obj 215 322 t b b;
#X obj 304 154 bng 30 250 50 0 empty empty empty 17 7 0 10 -262144
-1 -1;
#X text 275 127 Stop the patch;
#X text 47 8 1) Pick which textfile you would like to hear;
#X text 147 71 1;
#X text 187 71 2;
#X text 228 71 3;
#X text 19 138 2) Change the speed;
#X obj 279 455 s loop;
#X obj 140 260 r loop;
#X connect 0 0 33 0;
#X connect 0 0 23 0;
#X connect 0 0 52 0;
#X connect 1 0 22 0;
#X connect 1 0 31 0;
#X connect 1 0 51 0;
#X connect 2 0 21 0;
#X connect 2 0 20 0;
#X connect 2 0 50 0;
#X connect 3 0 18 0;
#X connect 3 0 19 0;
#X connect 3 0 49 0;
#X connect 4 0 37 0;
#X connect 4 0 26 0;
#X connect 4 0 55 0;
#X connect 5 0 35 0;
#X connect 5 0 25 0;
#X connect 5 0 54 0;
#X connect 6 0 34 0;
#X connect 6 0 24 0;
#X connect 6 0 53 0;
#X connect 7 0 16 0;
#X connect 7 1 15 0;
#X connect 7 2 17 0;
#X connect 7 3 32 0;
#X connect 7 4 41 0;
#X connect 7 5 42 0;
#X connect 7 6 43 0;
#X connect 7 7 44 0;
#X connect 7 8 45 0;
#X connect 7 9 46 0;
#X connect 7 10 47 0;
#X connect 8 0 36 0;
#X connect 8 0 27 0;
#X connect 8 0 56 0;
#X connect 9 0 12 0;
#X connect 9 0 40 0;
#X connect 9 0 30 0;
#X connect 10 0 13 0;
#X connect 10 0 39 0;
#X connect 10 0 29 0;
#X connect 11 0 14 0;
#X connect 11 0 38 0;
#X connect 11 0 28 0;
#X connect 12 0 30 1;
#X connect 13 0 29 1;
#X connect 14 0 28 1;
#X connect 15 0 2 0;
#X connect 16 0 3 0;
#X connect 17 0 1 0;
#X connect 19 0 48 0;
#X connect 19 1 48 1;
#X connect 20 0 48 0;
#X connect 20 1 48 1;
#X connect 22 0 48 0;
#X connect 22 1 48 1;
#X connect 23 0 48 0;
#X connect 23 1 48 1;
#X connect 24 0 48 0;
#X connect 24 1 48 1;
#X connect 25 0 48 0;
#X connect 25 1 48 1;
#X connect 26 0 48 0;
#X connect 26 1 48 1;
#X connect 27 0 48 0;
#X connect 27 1 48 1;
#X connect 28 0 48 0;
#X connect 28 1 48 1;
#X connect 29 0 48 0;
#X connect 29 1 48 1;
#X connect 30 0 48 0;
#X connect 30 1 48 1;
#X connect 32 0 0 0;
#X connect 41 0 6 0;
#X connect 42 0 5 0;
#X connect 43 0 4 0;
#X connect 44 0 8 0;
#X connect 45 0 11 0;
#X connect 46 0 10 0;
#X connect 47 0 9 0;
#X connect 49 0 19 1;
#X connect 50 0 20 1;
#X connect 51 0 22 1;
#X connect 52 0 23 1;
#X connect 53 0 24 1;
#X connect 54 0 25 1;
#X connect 55 0 26 1;
#X connect 56 0 27 1;
#X connect 57 0 7 0;
#X connect 57 1 85 0;
#X connect 58 0 77 0;
#X connect 59 0 57 0;
#X connect 60 0 61 0;
#X connect 61 0 57 0;
#X connect 62 0 61 1;
#X connect 63 0 62 0;
#X connect 64 0 75 0;
#X connect 65 0 75 0;
#X connect 66 0 75 0;
#X connect 67 0 65 0;
#X connect 68 0 64 0;
#X connect 69 0 66 0;
#X connect 70 0 71 0;
#X connect 70 0 74 0;
#X connect 70 0 73 0;
#X connect 71 0 58 0;
#X connect 72 0 67 0;
#X connect 72 1 68 0;
#X connect 72 2 69 0;
#X connect 73 0 57 0;
#X connect 74 0 72 0;
#X connect 76 0 57 0;
#X connect 77 0 61 0;
#X connect 77 1 59 0;
#X connect 78 0 60 0;
#X connect 86 0 58 0;
#X coords 0 1 100 -1 380 200 1 0 0;
#X restore 774 254 graph;
